<svg width="480" height="152" viewBox="0 0 480 152" fill="none" xmlns="http://www.w3.org/2000/svg">
<path d="M252.379 39.3878C251.277 39.8602 251.198 40.6475 251.04 41.2773C249.072 47.418 247.025 53.6374 245.136 59.7782C244.664 61.3527 243.955 61.8251 242.302 61.8251C237.421 61.7463 237.421 61.8251 235.925 57.2589C234.193 51.9842 232.54 46.7882 230.886 41.5134C230.65 40.7262 230.493 39.9389 229.863 39.3878C229.154 39.4665 229.312 40.0177 229.312 40.4113C228.918 46.7095 228.525 53.0864 228.288 59.3845C228.21 61.5102 227.422 61.9825 225.533 61.9038C220.809 61.6676 221.124 62.8486 221.518 57.3377C222.069 50.016 222.384 42.6157 222.777 35.294C222.935 31.9875 223.014 31.9875 226.241 31.9875C228.288 31.9875 230.335 32.0662 232.461 31.9087C234.114 31.83 234.823 32.4598 235.216 33.9556C236.712 38.9942 238.365 44.0327 240.019 49.0713C240.176 49.7011 240.334 50.3309 241.2 50.8032C242.774 45.8434 244.349 41.1198 245.845 36.2387C247.262 31.83 247.183 31.83 251.906 31.83C253.087 31.83 254.268 31.83 255.449 31.83C258.756 31.7513 258.834 31.7513 258.992 35.1366C259.543 43.4029 259.937 51.748 260.488 60.0931C260.566 61.3527 260.173 61.8251 258.913 61.8251C252.458 61.7463 253.717 62.6911 253.324 56.7078C253.087 51.0394 252.694 45.2923 252.379 39.3878Z" fill="white"/>
<path d="M382.358 46.9438C382.358 42.6138 382.358 38.2837 382.358 33.875C382.358 32.5367 382.673 31.8281 384.248 31.8281C388.735 31.9069 393.222 31.8281 397.71 31.9856C402.67 32.143 406.449 35.0559 407.787 39.5434C408.968 43.5585 407.393 47.8885 403.614 50.8014C402.748 51.5099 402.591 52.061 403.063 53.0058C404.166 55.2889 405.189 57.7294 406.37 60.0125C407.157 61.587 406.764 61.9807 405.189 61.9019C405.11 61.9019 405.032 61.9019 404.953 61.9019C401.174 62.6105 398.576 61.4295 397.631 57.4932C397.552 57.0995 397.238 56.7059 397.08 56.3123C395.506 52.927 394.088 52.2185 390.388 52.927C389.444 53.0845 389.286 53.7143 389.286 54.5016C389.286 56.391 389.207 58.3592 389.286 60.2486C389.365 61.5083 388.892 61.9019 387.633 61.9806C382.437 62.2956 382.437 62.3743 382.437 57.257C382.279 53.7143 382.358 50.329 382.358 46.9438ZM389.129 42.2201C389.129 43.5585 389.129 44.8968 389.129 46.2352C389.129 47.1799 389.444 47.731 390.546 47.731C392.593 47.731 394.718 47.8097 396.765 47.6523C400.15 47.3374 402.197 43.8734 401.095 40.6456C400.15 37.9689 398.497 37.0241 394.561 36.9454C389.207 36.9454 389.207 36.9454 389.129 42.2201Z" fill="white"/>
<path d="M338.353 62.0608C335.44 62.0608 331.661 61.8246 328.276 59.5415C326.465 58.2819 325.127 56.7073 324.576 54.5029C324.261 53.4008 324.497 52.9284 325.599 52.9284C327.567 52.9284 329.614 52.9284 331.582 52.9284C332.212 52.9284 332.685 53.1646 332.842 53.8731C333.393 55.9988 335.046 56.6286 337.015 56.9435C338.825 57.2584 340.557 57.1797 342.289 56.7073C343.864 56.3137 344.887 55.3689 345.045 53.7157C345.202 51.9837 343.943 51.1177 342.604 50.724C340.164 50.0155 337.723 49.5431 335.283 49.0708C333.314 48.6771 331.425 48.126 329.535 47.4175C326.229 46.0791 324.261 43.3237 324.261 40.0171C324.261 36.3957 326.071 33.719 329.693 32.5381C335.046 30.7273 340.4 30.806 345.675 32.8529C348.036 33.7977 349.926 35.4509 350.871 37.9702C351.422 39.466 351.264 40.5682 349.139 40.4108C348.115 40.3321 347.092 40.3321 346.068 40.4108C344.415 40.4895 342.84 40.6469 342.447 38.3638C342.289 37.5766 341.502 37.1042 340.636 36.8681C338.274 36.0808 335.991 36.1595 333.708 36.9468C332.448 37.3404 331.425 38.0489 331.346 39.5448C331.267 41.0406 332.212 41.8279 333.393 42.379C336.227 43.6386 339.376 43.8748 342.368 44.7408C344.179 45.2131 345.911 45.7642 347.564 46.6302C350.162 47.8898 352.051 49.7006 351.973 52.9284C351.973 56.3924 350.634 58.9904 347.485 60.6437C344.887 61.8246 342.132 61.9821 338.353 62.0608Z" fill="white"/>
<path d="M279.377 31.9068C284.888 31.9068 284.888 31.9069 286.699 37.1029C289.297 44.7394 291.895 52.4547 294.493 60.0912C294.886 61.3509 294.729 61.9019 293.312 61.8232C293.154 61.8232 292.997 61.8232 292.839 61.8232C288.037 61.9806 288.037 61.9806 286.462 57.4932C285.99 55.9974 285.203 55.3676 283.628 55.4463C280.715 55.6038 277.724 55.525 274.811 55.4463C273.472 55.4463 272.685 55.8399 272.213 57.1783C270.402 62.2169 270.402 62.1381 265.127 61.8232C263.868 61.7445 263.631 61.3508 264.025 60.1699C267.095 51.1163 270.166 42.0627 273.157 33.009C273.472 32.0643 274.102 31.8281 275.047 31.8281C276.464 31.9069 277.881 31.9068 279.377 31.9068ZM279.534 37.1816C279.377 37.1816 279.141 37.1816 278.983 37.1816C277.645 41.1179 276.307 45.0543 274.968 48.9907C274.653 49.8567 275.204 50.2503 275.992 50.2503C278.117 50.2503 280.243 50.2503 282.369 50.2503C283.392 50.2503 283.707 49.7779 283.471 48.8332C282.211 44.8968 280.873 41.0392 279.534 37.1816Z" fill="white"/>
<path d="M426.129 62.0608C416.996 61.9821 411.013 55.9201 411.092 46.9452C411.171 37.5766 417.39 31.2784 426.286 31.3572C435.733 31.4359 441.874 37.6553 441.874 47.3388C441.874 56.1562 435.497 62.1395 426.129 62.0608ZM417.862 46.8664C417.862 47.4962 417.784 48.2048 417.862 48.8346C418.335 53.322 421.326 56.5499 425.656 57.0222C429.435 57.4946 433.214 54.9753 434.395 51.039C435.419 47.4963 435.182 44.0322 433.529 40.7257C432.191 38.049 429.908 36.4744 426.837 36.317C423.609 36.1595 421.09 37.4979 419.437 40.3321C418.335 42.379 417.705 44.5046 417.862 46.8664Z" fill="white"/>
<path d="M298.434 46.8669C298.434 42.4582 298.434 38.0494 298.434 33.6407C298.434 32.3024 298.828 31.83 300.166 31.9087C306.228 31.9874 312.212 31.9874 318.274 31.9087C320.006 31.9087 320.478 32.5386 320.321 34.1131C320.163 35.4515 320.793 37.1047 318.274 37.026C314.574 36.8685 310.873 37.1047 307.252 36.9473C305.599 36.8685 305.126 37.4984 305.126 39.1516C305.048 44.5838 305.048 44.5838 310.48 44.5838C311.739 44.5838 312.999 44.5838 314.259 44.5838C316.857 44.5838 318.038 46.3946 317.014 48.9138C316.699 49.7798 315.991 49.6223 315.361 49.6223C312.684 49.6223 310.086 49.7011 307.409 49.6223C305.835 49.5436 305.205 50.016 305.205 51.748C305.205 56.7865 305.126 56.7866 310.165 56.7866C312.999 56.7866 315.912 56.8653 318.746 56.7866C320.714 56.7078 320.478 57.9675 320.399 59.1484C320.321 60.3293 321.108 61.9826 318.746 61.9038C312.527 61.8251 306.228 61.8251 300.009 61.9038C298.671 61.9038 298.434 61.3527 298.513 60.1718C298.434 55.7631 298.356 51.3543 298.434 46.8669Z" fill="white"/>
<path d="M366.295 31.9077C369.68 31.9077 373.065 32.0652 376.451 31.829C378.812 31.6716 378.576 33.0099 378.655 34.5845C378.734 36.3952 378.261 37.1825 376.372 37.025C374.797 36.8676 373.144 37.1037 371.491 37.025C369.916 36.9463 369.523 37.5761 369.523 39.0719C369.601 45.9212 369.444 52.7705 369.523 59.6197C369.523 61.273 369.208 61.9028 367.318 61.9028C362.673 61.8241 362.673 61.9028 362.673 57.2579C362.673 51.5108 362.673 45.7638 362.673 40.0167C362.673 37.025 362.673 37.025 359.603 37.025C358.107 37.025 356.69 37.025 355.194 37.025C353.147 37.025 353.62 35.5292 353.541 34.3483C353.462 33.1674 353.305 31.9077 355.194 31.9077C358.973 31.9077 362.673 31.9077 366.295 31.9077Z" fill="white"/>
<path d="M251.037 83.1301C251.037 78.8789 251.115 74.5489 251.037 70.2976C251.037 68.8018 251.43 68.1719 253.005 68.2507C256.941 68.3294 260.799 68.3294 264.735 68.2507C266.703 68.2507 268.593 68.5656 270.325 69.2742C277.725 72.1871 279.064 81.7131 272.844 86.6729C271.506 87.6963 271.112 88.4836 271.978 90.0581C273.159 92.105 273.868 94.3882 275.048 96.4351C275.914 98.0883 275.363 98.2458 273.868 98.2458C268.514 98.3245 268.514 98.3245 266.231 93.6009C266.152 93.3647 266.074 93.2072 265.995 92.9711C264.027 88.8772 264.027 88.8772 259.539 89.1922C258.28 89.2709 257.807 89.6645 257.886 90.9242C257.965 92.8136 257.886 94.7818 257.886 96.6712C257.886 97.7734 257.492 98.1671 256.311 98.2458C251.115 98.6394 251.115 98.6394 251.115 93.5222C251.037 89.9794 251.037 86.5941 251.037 83.1301ZM257.728 78.6427C257.728 79.7449 257.807 80.8471 257.728 81.9492C257.571 83.6025 258.358 84.1536 259.933 84.0749C261.586 83.9962 263.318 84.0749 264.971 83.9961C267.884 83.8387 269.774 81.9493 269.931 79.1151C270.167 75.3362 267.963 73.2892 263.712 73.2892C257.807 73.2892 257.807 73.2892 257.728 78.6427Z" fill="white"/>
<path d="M371.255 83.134C371.255 78.8827 371.334 74.6314 371.255 70.3014C371.255 68.8843 371.57 68.1758 373.223 68.1758C377.16 68.2545 381.175 68.1758 385.111 68.2545C386.607 68.2545 388.024 68.412 389.441 68.8843C393.22 70.0653 395.897 72.3483 396.763 76.3634C397.55 80.4573 396.527 84.0787 393.141 86.598C391.488 87.7789 391.488 88.7236 392.354 90.3769C393.535 92.5025 394.401 94.7856 395.503 96.9112C395.975 97.9347 395.818 98.2496 394.716 98.2496C393.063 98.2496 391.331 98.1709 389.677 98.2496C388.733 98.2496 388.418 97.6985 388.103 96.9899C387.158 95.0218 386.213 93.211 385.347 91.2429C384.717 89.747 383.773 89.0385 382.119 89.2747C381.332 89.3534 380.466 89.3534 379.679 89.2747C378.419 89.1959 377.947 89.747 378.026 91.0067C378.104 92.8961 377.947 94.8643 378.026 96.7538C378.026 97.8559 377.632 98.2496 376.53 98.3283C371.334 98.7219 371.334 98.7219 371.334 93.6047C371.255 90.0619 371.255 86.598 371.255 83.134ZM382.592 73.3718C381.883 73.3718 381.096 73.4505 380.387 73.3718C378.577 73.2143 377.868 73.8441 377.947 75.7336C378.104 77.9379 378.026 80.1423 377.947 82.3467C377.947 83.6851 378.498 84.2361 379.758 84.1574C381.411 84.0787 383.143 84.1574 384.796 84.1574C388.024 84.0787 390.071 82.1105 390.15 78.9614C390.228 75.6549 388.181 73.5292 384.875 73.4505C384.245 73.2931 383.379 73.3718 382.592 73.3718Z" fill="white"/>
<path d="M295.125 98.4045C285.757 98.4045 279.695 92.3425 279.695 83.1314C279.695 74.1565 286.15 67.6222 294.889 67.7009C304.336 67.7009 310.477 73.9991 310.477 83.4464C310.398 92.5787 304.415 98.4045 295.125 98.4045ZM303.707 82.8165C303.785 81.0845 303.313 79.0376 302.29 77.0694C300.872 74.2352 298.511 72.8182 295.44 72.6607C292.134 72.582 289.614 74.0778 288.04 76.9907C286.78 79.2738 286.308 81.7144 286.465 84.2336C286.78 88.8785 289.142 92.2638 292.764 93.1298C298.983 94.7043 303.864 90.2956 303.707 82.8165Z" fill="white"/>
<path d="M314.884 83.134C314.884 78.8827 314.963 74.5527 314.884 70.3014C314.806 68.6482 315.357 68.1758 317.01 68.1758C321.576 68.3332 326.142 68.1758 330.709 68.3332C335.826 68.5694 339.762 72.1909 340.55 76.9145C341.337 81.7168 338.739 86.283 334.251 88.0938C331.181 89.3534 327.874 89.1172 324.647 89.1172C321.734 89.1172 321.734 89.1172 321.734 91.8727C321.734 92.4238 321.734 92.8961 321.734 93.4472C321.655 98.407 321.655 98.3283 316.695 98.1708C315.278 98.0921 314.963 97.6198 314.963 96.3601C314.963 91.9514 314.884 87.5427 314.884 83.134ZM321.655 78.6465C321.655 84.1574 321.655 84.1574 327.087 84.0787C327.874 84.0787 328.74 84.0787 329.528 83.9999C331.89 83.685 333.543 82.0318 333.779 79.6699C334.251 75.8123 332.283 73.4505 328.347 73.3718C321.655 73.1356 321.655 73.1356 321.655 78.6465Z" fill="white"/>
<path d="M344.644 83.2127C344.644 78.8827 344.723 74.5527 344.644 70.144C344.644 68.7269 344.959 68.1758 346.455 68.1758C352.596 68.2545 358.658 68.2545 364.799 68.1758C367.003 68.1758 366.609 69.5929 366.609 70.8525C366.609 72.0334 366.924 73.3718 364.877 73.2931C361.02 73.2143 357.241 73.2931 353.383 73.2931C351.966 73.2931 351.415 73.7654 351.415 75.1825C351.572 81.9531 350.47 80.6934 356.926 80.8509C358.028 80.8509 359.13 80.8509 360.232 80.8509C363.067 80.8509 363.933 82.0318 363.224 84.7872C362.909 85.8894 362.201 85.8894 361.335 85.8894C358.658 85.8894 356.06 85.9681 353.383 85.8894C351.966 85.8894 351.336 86.3618 351.415 87.7789C351.572 94.1558 350.549 92.8174 356.375 92.9749C359.209 93.0536 361.964 93.0536 364.799 92.9749C366.137 92.9749 366.609 93.2898 366.609 94.7069C366.688 98.0921 366.767 98.0921 363.382 98.0921C357.792 98.0921 352.202 98.0134 346.613 98.0921C345.117 98.0921 344.566 97.6985 344.566 96.124C344.644 91.9514 344.566 87.5427 344.644 83.2127Z" fill="white"/>
<path d="M221.434 83.2127C221.434 78.9614 221.513 74.7101 221.434 70.3801C221.434 68.8056 221.828 68.1758 223.56 68.1758C227.969 68.3332 232.377 68.0971 236.786 68.3332C244.423 68.6482 248.91 75.3399 246.391 82.4254C245.053 86.283 241.037 88.881 236.078 89.1172C234.031 89.1959 231.984 89.1959 229.937 89.1172C228.599 89.1172 228.126 89.6683 228.126 90.928C228.205 92.7387 228.047 94.6282 228.126 96.4389C228.205 97.6985 227.733 98.1709 226.473 98.0921C220.253 97.9347 221.434 99.0369 221.356 93.2898C221.356 89.9832 221.434 86.5979 221.434 83.2127ZM232.692 73.3718C231.984 73.3718 231.197 73.4505 230.488 73.3718C228.599 73.1356 228.047 73.9229 228.126 75.7336C228.284 77.9379 228.205 80.1423 228.126 82.3467C228.047 83.685 228.599 84.1574 229.937 84.1574C231.669 84.0787 233.48 84.1574 235.212 84.1574C238.282 84.0787 240.408 81.7956 240.408 78.7253C240.408 75.7336 238.361 73.608 235.369 73.4505C234.424 73.2931 233.558 73.3718 232.692 73.3718Z" fill="white"/>
<path d="M429.983 68.2533C432.424 67.5448 433.841 68.9619 434.943 71.3237C436.282 74.1579 438.014 76.8346 439.509 79.6688C440.297 81.0859 440.769 81.3221 441.635 79.7475C443.288 76.5985 445.099 73.6068 446.674 70.379C447.54 68.7257 448.563 68.0959 450.452 68.1746C455.412 68.4108 455.412 68.3321 453.05 72.5833C450.846 76.5197 448.799 80.5348 446.437 84.3137C444.469 87.4628 443.839 90.6906 443.918 94.3121C444.076 98.7208 444.784 98.091 440.139 98.1697C437.226 98.2484 436.833 98.091 437.305 95.4142C438.328 89.1948 434.628 84.6286 432.03 79.6688C430.377 76.441 428.645 73.2919 426.756 70.2215C425.653 68.4108 426.283 68.0959 428.015 68.2533C428.488 68.3321 429.117 68.2533 429.983 68.2533Z" fill="white"/>
<path d="M411.484 68.2525C415.027 68.2525 418.569 68.3312 422.112 68.2525C423.765 68.1737 424.001 68.961 423.765 70.2994C423.529 71.4803 424.789 73.5272 422.033 73.3697C420.38 73.291 418.648 73.4485 416.916 73.3697C415.184 73.2123 414.633 73.8421 414.633 75.5741C414.712 82.4234 414.633 89.2727 414.712 96.1219C414.712 97.7752 414.239 98.3263 412.586 98.2476C407.154 98.0114 407.941 99.0349 407.941 93.5239C407.862 87.5407 407.862 81.5574 407.941 75.6528C407.941 73.7634 407.311 73.2123 405.501 73.291C403.926 73.3698 402.273 73.2123 400.619 73.3697C398.651 73.5272 398.73 72.2676 398.809 70.9292C398.887 69.6696 398.415 68.1737 400.619 68.2525C404.241 68.3312 407.862 68.2525 411.484 68.2525Z" fill="white"/>
<path d="M425.573 115.931C424.868 116.479 425.181 117.184 425.181 117.733C425.181 122.823 425.103 127.836 425.181 132.927C425.181 134.258 424.79 134.806 423.458 134.728C417.428 134.493 418.524 135.589 418.446 130.029C418.368 122.432 418.524 114.756 418.446 107.159C418.446 105.436 418.994 105.045 420.639 104.81C424.946 104.262 427.609 105.671 429.646 109.666C432.152 114.678 435.441 119.299 438.417 124.155C438.731 124.625 438.887 125.486 439.514 125.329C440.454 125.173 439.984 124.233 439.984 123.685C440.062 118.202 440.062 112.72 439.984 107.159C439.984 105.436 440.454 104.81 442.255 104.888C447.503 105.123 446.719 104.183 446.719 109.274C446.798 117.028 446.719 124.781 446.798 132.613C446.798 134.18 446.328 134.728 444.683 134.806C437.478 134.963 437.478 134.963 433.797 128.854C431.369 124.86 428.941 120.865 426.435 116.871C426.2 116.401 426.043 116.009 425.573 115.931Z" fill="white"/>
<path d="M466.381 134.963C461.839 135.041 457.766 134.493 454.399 131.673C454.007 131.36 453.615 131.047 453.302 130.577C452.441 129.324 451.109 127.914 451.814 126.426C452.44 125.094 454.242 126.112 455.417 125.878C456.043 125.799 456.748 125.878 457.375 125.878C458.628 125.799 459.724 125.799 460.194 127.444C460.507 128.619 461.604 129.324 462.779 129.637C465.05 130.185 467.243 130.107 469.514 129.559C470.924 129.245 471.864 128.305 472.02 126.817C472.255 125.251 471.316 124.389 469.984 123.841C467.4 122.823 464.58 122.588 461.917 121.883C458.706 121.1 455.26 120.552 453.067 117.576C449.934 113.346 451.501 107.394 456.435 105.593C461.839 103.635 467.4 103.635 472.725 105.828C475.31 106.924 477.19 108.804 478.051 111.623C478.364 112.72 478.051 113.346 476.876 113.346C475.075 113.346 473.195 113.346 471.394 113.346C470.689 113.346 470.062 113.033 469.906 112.328C469.201 109.822 467.243 109.43 465.128 109.352C463.797 109.274 462.465 109.352 461.212 109.744C459.803 110.135 458.549 110.918 458.471 112.485C458.314 114.208 459.646 114.834 460.977 115.383C463.64 116.401 466.46 116.871 469.279 117.497C471.081 117.889 472.804 118.515 474.448 119.299C477.346 120.63 479.226 122.666 479.069 126.034C478.913 129.637 477.19 132.143 473.978 133.553C471.394 134.806 468.653 134.963 466.381 134.963Z" fill="white"/>
<path d="M235.803 134.962C232.2 134.962 228.598 134.57 225.465 132.534C223.585 131.281 222.176 129.714 221.627 127.365C221.392 126.268 221.627 125.877 222.724 125.877C224.603 125.877 226.561 125.877 228.441 125.877C229.068 125.877 229.538 125.955 229.772 126.738C230.477 129.245 232.514 129.714 234.707 129.949C236.351 130.106 237.918 129.949 239.484 129.558C240.972 129.166 241.834 128.07 241.99 126.582C242.147 125.094 241.129 124.232 239.876 123.84C237.604 123.136 235.333 122.587 233.062 122.117C231.104 121.726 229.224 121.178 227.345 120.551C223.507 119.22 221.314 116.557 221.314 113.111C221.314 109.273 223.115 106.61 227.188 105.357C232.357 103.791 237.604 103.712 242.617 105.905C245.123 107.002 247.081 108.725 247.864 111.466C248.256 112.719 247.943 113.424 246.455 113.346C245.123 113.267 243.792 113.267 242.539 113.346C240.972 113.502 239.876 113.111 239.406 111.388C238.936 109.9 237.526 109.586 236.195 109.351C234.315 109.038 232.435 109.116 230.556 109.743C229.303 110.213 228.363 110.918 228.363 112.406C228.363 113.894 229.303 114.599 230.477 115.147C233.375 116.4 236.586 116.713 239.641 117.497C241.52 118.045 243.4 118.671 245.123 119.69C250.057 122.587 250.214 129.401 245.436 132.612C242.539 134.805 239.171 134.884 235.803 134.962Z" fill="white"/>
<path d="M398.318 134.962C389.39 134.884 383.281 128.775 383.359 120.081C383.516 110.448 389.625 104.339 399.023 104.339C408.03 104.417 414.061 110.996 413.982 120.551C413.904 129.245 407.56 135.04 398.318 134.962ZM390.095 119.846C390.095 120.551 390.095 121.334 390.173 122.039C390.643 126.347 393.776 129.558 397.927 130.028C401.765 130.419 405.367 128.07 406.62 124.075C407.717 120.629 407.482 117.105 405.837 113.816C404.427 110.996 402.078 109.351 398.867 109.351C395.734 109.351 393.384 110.683 391.818 113.346C390.565 115.382 390.095 117.575 390.095 119.846Z" fill="white"/>
<path d="M267.126 134.962C257.885 134.727 251.854 128.54 252.089 119.455C252.324 110.448 258.824 104.182 267.753 104.339C276.838 104.495 282.947 110.996 282.712 120.316C282.555 129.401 276.368 135.197 267.126 134.962ZM275.976 119.22C276.055 117.81 275.507 115.852 274.645 113.972C271.982 108.411 264.463 107.707 261.017 112.797C258.511 116.478 258.198 120.629 259.764 124.702C261.409 128.931 265.09 130.654 269.476 129.714C273.549 128.853 276.055 125.172 275.976 119.22Z" fill="white"/>
<path d="M311.615 114.835C311.615 112.251 311.693 109.666 311.615 107.16C311.537 105.594 311.928 104.889 313.651 104.889C318.351 104.889 318.272 104.81 318.351 109.431C318.351 113.739 318.272 118.046 318.429 122.432C318.664 127.993 322.736 131.048 327.984 129.794C330.49 129.168 331.978 127.523 332.84 125.174C333.31 123.764 333.466 122.354 333.466 120.866C333.466 116.167 333.545 111.468 333.466 106.768C333.466 105.515 333.78 104.967 335.189 104.967C341.142 105.124 340.045 104.262 340.123 109.745C340.202 113.817 340.202 117.968 340.045 122.041C339.81 129.873 334.876 134.65 327.122 134.964C321.562 135.199 316.628 134.102 313.495 128.855C312.477 127.132 311.772 125.252 311.772 123.216C311.693 120.396 311.772 117.655 311.772 114.835C311.693 114.835 311.615 114.835 311.615 114.835Z" fill="white"/>
<path d="M356.1 104.965C359.624 104.965 363.149 105.043 366.673 104.965C368.631 104.887 368.631 105.983 368.553 107.314C368.475 108.646 368.944 110.291 366.595 110.056C365.42 109.977 364.245 110.056 363.071 110.056C359.076 110.134 359.546 109.586 359.468 113.737C359.468 120.002 359.389 126.346 359.468 132.612C359.468 134.413 358.92 134.883 357.197 134.805C352.027 134.57 352.732 135.588 352.732 130.262C352.732 124.232 352.654 118.279 352.732 112.249C352.732 110.447 352.106 109.899 350.461 110.056C348.973 110.134 347.485 109.977 346.075 110.134C344.039 110.369 343.569 109.507 343.647 107.628C343.726 105.905 343.882 104.887 345.997 105.043C349.365 105.122 352.732 104.965 356.1 104.965Z" fill="white"/>
<path d="M287.104 119.926C287.104 115.618 287.183 111.311 287.104 106.925C287.104 105.437 287.418 104.889 289.062 104.889C293.84 104.967 293.84 104.889 293.84 109.588C293.84 115.54 293.918 121.492 293.84 127.366C293.84 129.168 294.466 129.638 296.111 129.638C299.871 129.559 303.552 129.638 307.311 129.559C309.034 129.481 309.582 130.108 309.347 131.752C309.191 133.084 309.974 134.728 307.389 134.728C301.202 134.65 295.093 134.65 288.906 134.728C287.574 134.728 287.026 134.415 287.026 132.849C287.183 128.62 287.104 124.312 287.104 119.926Z" fill="white"/>
<path d="M378.964 119.924C378.964 124.231 378.885 128.539 378.964 132.925C378.964 134.334 378.572 134.804 377.084 134.804C372.228 134.883 372.228 134.883 372.228 129.948C372.228 122.43 372.306 114.833 372.228 107.314C372.228 105.513 372.698 104.886 374.578 104.964C378.964 105.043 378.964 104.964 378.964 109.429C378.964 112.875 378.964 116.399 378.964 119.924Z" fill="white"/>
<path d="M157.546 25.8673C157.546 30.2152 157.566 34.5631 157.526 38.9311C157.526 39.5322 157.726 39.8728 158.227 40.1934C161.253 42.0367 164.278 43.8801 167.284 45.7635C171.912 48.6487 176.521 51.574 181.129 54.4793C183.293 55.8418 185.417 57.2243 187.581 58.5868C187.881 58.7671 187.981 58.9674 187.981 59.3081C187.981 63.696 187.981 68.084 187.981 72.472C187.981 72.6122 188.041 72.7926 187.901 72.8927C187.721 73.013 187.581 72.8527 187.46 72.7525C185.096 71.2097 182.732 69.6468 180.348 68.104C175.038 64.6778 169.728 61.2716 164.419 57.8454C161.133 55.7416 157.847 53.6578 154.561 51.554C150.774 49.1296 147.007 46.6651 143.22 44.2407C140.014 42.197 136.788 40.1733 133.583 38.1296C129.896 35.7854 126.209 33.4411 122.522 31.0968C118.135 28.3118 113.747 25.5468 109.359 22.7617C106.213 20.7581 103.067 18.7544 99.9014 16.7708C98.4388 15.8492 96.9761 14.9676 95.5134 14.0258C95.2129 13.8455 95.0125 13.9056 94.7521 14.0659C90.3641 16.871 85.9761 19.6761 81.5882 22.4812C75.4169 26.4083 69.2457 30.3154 63.0745 34.2225C58.1656 37.3282 53.2567 40.4338 48.3478 43.5394C41.4352 47.9274 34.5427 52.3554 27.6101 56.7234C20.938 60.931 14.306 65.1988 7.71401 69.5266C5.30964 71.1095 2.90528 72.6523 0.50091 74.2151C0.380691 74.2953 0.260473 74.4556 0.100182 74.3554C-0.060109 74.2552 0.0200362 74.0749 0.0200362 73.9346C0.0200362 69.6468 0.0200365 65.339 1.53761e-07 61.0512C1.53761e-07 60.6505 0.160292 60.4501 0.480874 60.2498C5.08924 57.3245 9.67757 54.3992 14.2859 51.4538C18.153 48.9893 22.02 46.4848 25.887 44.0203C29.8141 41.5158 33.7212 39.0312 37.6484 36.5467C40.6739 34.6232 43.6994 32.7198 46.7248 30.8163C51.3733 27.871 56.0217 24.8856 60.6702 21.9402C64.9379 19.2353 69.2257 16.5304 73.4935 13.8255C79.0035 10.3191 84.4934 6.81275 89.9834 3.30638C91.6064 2.26449 93.2293 1.22259 94.8522 0.160666C95.1728 -0.0396979 95.3932 -0.0597339 95.7138 0.14063C102.907 4.70893 110.12 9.27722 117.313 13.8455C122.002 16.8109 126.67 19.7963 131.359 22.7617C133.022 23.8236 134.685 24.8655 136.348 25.9275C136.468 26.0076 136.588 26.1679 136.748 26.0877C136.949 26.0076 136.869 25.7872 136.869 25.6269C136.869 22.4011 136.869 19.1752 136.869 15.9493C136.869 14.7672 136.889 13.585 136.869 12.4029C136.869 11.9821 136.969 11.8018 137.43 11.8018C143.941 11.8018 150.453 11.8018 156.965 11.7617C157.466 11.7617 157.546 11.9421 157.546 12.3829C157.546 16.9311 157.546 21.3992 157.546 25.8673Z" fill="white"/>
<path d="M73.9939 90.8261C73.9939 72.9737 73.9939 55.1213 73.9939 37.2688C73.9939 36.808 74.1141 36.5075 74.5148 36.247C77.6606 34.2033 80.7862 32.1395 83.9319 30.1158C87.5185 27.7916 91.125 25.5075 94.7115 23.1833C95.0121 22.9829 95.2525 22.9428 95.5731 23.1632C96.615 23.8244 97.6569 24.4856 98.6988 25.1468C100.662 26.369 102.606 27.5712 104.569 28.7934C106.813 30.196 109.038 31.6186 111.282 33.0211C114.387 34.9647 117.513 36.9082 120.619 38.8517C122.101 39.7734 123.624 40.6349 124.986 41.7169C127.351 43.6204 128.553 46.185 128.593 49.2105C128.653 53.899 128.613 58.5875 128.613 63.2761C128.613 73.0939 128.553 82.8917 128.633 92.7095C128.673 97.1576 127.09 100.864 124.145 104.05C122.141 106.194 119.777 107.817 116.852 108.498C115.549 108.799 114.207 108.839 112.885 108.839C104.008 108.839 95.1323 108.839 86.2762 108.839C85.5148 108.839 85.4948 108.859 85.4948 109.62C85.4948 121.221 85.4948 132.842 85.4948 144.443C85.4948 145.245 85.4948 145.245 84.6933 145.245C81.3472 145.245 78.0212 145.245 74.6751 145.265C74.074 145.265 74.034 144.984 74.034 144.504C74.054 132.983 74.054 121.482 74.054 109.961C73.9939 103.569 73.9939 97.1977 73.9939 90.8261ZM85.4547 69.9682C85.4347 69.9682 85.4347 69.9682 85.4547 69.9682C85.4547 78.7241 85.4547 87.48 85.4547 96.2359C85.4547 96.9973 85.4547 97.0173 86.2361 97.0173C91.2052 97.0173 96.1742 97.0173 101.143 97.0173C104.91 97.0173 108.677 97.0574 112.444 96.9773C114.487 96.9372 116.07 95.9153 117.092 94.1121C117.773 92.9299 117.974 91.6476 117.974 90.3252C117.974 82.6913 117.974 75.0575 117.974 67.4236C117.974 62.5547 117.974 57.6659 117.974 52.797C117.974 51.8152 117.673 51.0338 116.772 50.4928C115.589 49.8116 114.447 49.0502 113.285 48.3289C109.679 46.0648 106.072 43.8207 102.466 41.5566C100.242 40.1741 97.9975 38.7916 95.7734 37.4291C95.4128 37.2087 95.0722 36.9883 94.5913 37.3089C93.349 38.1104 92.0667 38.8517 90.8245 39.6331C89.2416 40.6149 87.6988 41.6368 86.0959 42.5584C85.5549 42.879 85.3946 43.1996 85.3946 43.8007C85.4547 52.5366 85.4547 61.2524 85.4547 69.9682Z" fill="#C8963C"/>
<path d="M55.3014 82.3292C55.1211 82.3692 55.081 82.5295 55.0209 82.6497C53.2176 86.5368 51.4344 90.4038 49.6311 94.2909C47.2267 99.5004 44.7823 104.69 42.2577 109.839C41.7969 110.801 41.316 111.763 40.8752 112.724C40.735 113.045 40.5346 113.165 40.194 113.165C39.5528 113.145 38.9116 113.125 38.2905 113.165C37.8898 113.185 37.6894 113.065 37.5091 112.704C35.5255 108.897 33.5018 105.111 31.4982 101.324C29.5747 97.6971 27.6512 94.0705 25.7277 90.4439C25.6476 90.2836 25.6075 90.0832 25.4272 90.0031C25.2268 90.1233 25.2869 90.3237 25.2869 90.4639C25.2869 100.462 25.2869 110.46 25.2869 120.458C25.2869 121.961 25.2869 121.961 23.8242 121.941C22.8024 121.921 21.8006 121.921 20.8989 122.502C20.7386 122.622 20.5383 122.562 20.358 122.562C18.4144 122.442 16.8516 123.183 15.6494 124.686C15.5893 124.766 15.5292 124.886 15.449 124.947C15.1886 125.127 14.9081 125.427 14.6275 125.327C14.4071 125.247 14.5474 124.846 14.5474 124.606C14.5474 107.735 14.5674 90.8847 14.5474 74.0141C14.5474 73.2527 14.7878 72.852 15.409 72.4713C18.4745 70.5277 21.5 68.5241 24.5656 66.5405C25.2068 66.1197 25.2268 66.1197 25.5875 66.801C27.7514 70.8283 29.9353 74.8556 32.0993 78.8829C34.0829 82.5696 36.0665 86.2363 38.0501 89.923C38.1503 90.1033 38.2104 90.3838 38.4107 90.3838C38.6712 90.3838 38.6712 90.0632 38.7514 89.8628C40.7951 84.994 42.8588 80.1252 44.8825 75.2363C46.245 71.9704 47.5674 68.6844 48.9298 65.3984C51.3943 59.4276 53.8788 53.4567 56.3433 47.4659C56.4435 47.2455 56.5637 47.0852 56.7641 46.965C58.6876 45.6826 60.591 44.4003 62.5145 43.118C64.0373 42.0961 65.5801 41.1143 67.1229 40.1125C67.2431 40.0324 67.3433 39.852 67.5036 39.9322C67.7039 40.0324 67.6038 40.2327 67.6038 40.393C67.6038 47.526 67.6038 54.6389 67.6038 61.7718C67.6038 81.3073 67.6038 100.863 67.6238 120.398C67.6238 128.513 67.6238 136.648 67.6438 144.763C67.6438 145.223 67.5036 145.384 67.0227 145.384C63.356 145.364 59.7094 145.364 56.0428 145.384C55.5218 145.384 55.4216 145.183 55.4216 144.722C55.4216 138.972 55.4216 133.202 55.4216 127.451C55.4216 113.546 55.4216 99.6606 55.4216 85.7554C55.4216 84.7736 55.4417 83.8119 55.4216 82.8301C55.3816 82.6297 55.4617 82.4694 55.3014 82.3292Z" fill="white"/>
<path d="M151.877 134.784C154.822 134.784 157.767 134.764 160.713 134.804C161.214 134.804 161.394 134.684 161.394 134.143C161.374 132.019 161.394 129.895 161.394 127.791C161.394 127.43 161.494 127.15 161.695 126.869C162.716 125.527 163.658 124.124 164.56 122.702C165.141 121.8 165.441 120.839 165.201 119.757C165.001 118.895 164.54 118.214 163.798 117.733C163.097 117.272 162.416 116.751 161.715 116.29C161.454 116.11 161.374 115.89 161.374 115.589C161.394 114.928 161.354 114.267 161.394 113.625C161.434 112.604 160.973 111.862 160.152 111.321C157.908 109.818 155.664 108.316 153.42 106.833C149.532 104.308 145.645 101.804 141.758 99.2994C140.716 98.6382 139.635 98.0371 138.593 97.3759C135.647 95.5325 134.185 92.8276 134.185 89.3814C134.145 80.2448 134.165 71.1082 134.165 61.9716C134.165 60.008 134.145 58.0244 134.145 56.0609C134.145 54.8387 134.425 53.6966 135.046 52.6146C136.369 50.3305 139.274 50.0299 141.137 51.3323C144.684 53.7968 148.31 56.101 151.917 58.4652C155.624 60.8896 159.33 63.294 163.037 65.6984C165.261 67.161 167.465 68.6437 169.709 70.0663C171.873 71.4288 172.775 73.4925 172.835 75.8969C172.915 79.4834 172.855 83.0699 172.875 86.6364C172.875 87.0972 172.654 87.1573 172.274 87.1573C168.868 87.1573 165.441 87.1573 162.035 87.1774C161.574 87.1774 161.434 87.0171 161.434 86.5562C161.454 84.192 161.434 81.8277 161.454 79.4634C161.454 78.9825 161.334 78.702 160.913 78.4215C156.325 75.4361 151.757 72.4106 147.188 69.4051C146.868 69.1847 146.507 69.0044 146.186 68.784C145.826 68.5435 145.786 68.7038 145.786 69.0244C145.786 73.5526 145.806 78.0608 145.806 82.589C145.806 83.7912 145.806 84.9934 145.806 86.1956C145.806 86.8167 146.006 87.2976 146.547 87.6783C150.394 90.283 154.241 92.9078 158.088 95.5125C161.574 97.8768 165.081 100.221 168.607 102.545C171.552 104.469 172.755 107.254 172.755 110.66C172.755 116.791 172.755 122.922 172.755 129.053C172.755 132.9 172.775 136.747 172.775 140.594C172.775 141.676 172.634 142.738 172.254 143.74C171.132 146.685 168.627 148.268 165.461 147.988C162.195 147.687 158.93 147.287 155.684 146.926C153.42 146.685 151.135 146.425 148.871 146.185C146.327 145.924 143.802 145.664 141.257 145.423C140.877 145.383 140.737 145.243 140.737 144.862C140.737 142.418 140.737 139.993 140.737 137.549C140.737 137.328 140.817 137.148 140.937 136.988C141.378 136.427 141.839 135.886 142.219 135.285C142.46 134.924 142.7 134.804 143.141 134.804C146.026 134.804 148.951 134.784 151.877 134.784Z" fill="white"/>
<path d="M16.4506 125.187C17.4524 123.845 19.9169 122.783 21.8204 123.945C23.3632 124.907 24.3249 126.349 25.1664 127.892C26.3886 130.116 27.13 132.501 27.6309 134.985C27.671 135.246 27.7511 135.506 28.0517 135.466C28.3723 135.426 28.3522 135.125 28.3121 134.865C27.6109 131.439 26.5489 128.153 24.3249 125.368C23.6437 124.526 22.8422 123.825 21.8404 123.404C21.7602 123.364 21.64 123.344 21.6601 123.224C21.6801 123.144 21.7803 123.084 21.8604 123.043C21.9606 123.003 22.0808 122.963 22.181 122.963C23.6637 122.843 25.1464 122.943 26.589 123.364C28.0316 123.785 28.9733 124.827 29.7548 126.009C31.6582 128.834 32.7201 132 33.3613 135.326C33.6218 136.628 33.8422 137.951 33.9624 139.273C33.9824 139.594 34.1227 139.854 34.4633 139.834C34.7438 139.814 34.8039 139.553 34.7839 139.273C34.3832 135.366 33.5016 131.579 31.7985 128.033C31.3376 127.051 30.7566 126.129 30.0954 125.268C29.9952 125.147 29.895 125.007 29.8149 124.867C29.9551 124.666 30.0753 124.807 30.1755 124.847C32.2994 125.588 33.9223 127.011 35.365 128.674C37.8695 131.539 38.9114 135.005 39.3522 138.712C39.3923 139.012 39.4524 139.233 39.7128 139.433C40.4742 140.014 40.5143 140.555 39.8932 141.257C39.6728 141.497 39.5926 141.777 39.813 141.998C40.0935 142.298 40.4141 141.978 40.5143 141.798C40.8549 141.156 41.2156 141.437 41.5762 141.697C41.8968 141.918 42.2174 142.158 42.4979 142.439C43.3795 143.32 43.3394 144.442 42.3576 145.204C41.6764 145.745 40.9351 146.165 40.1136 146.486C37.8294 147.368 35.4451 147.869 33.0207 148.189C29.1737 148.71 25.3267 148.79 21.4597 148.43C18.0535 148.109 14.7275 147.348 11.4415 146.386C10.039 145.985 8.65645 145.484 7.35408 144.823C6.83314 144.563 6.31219 144.282 6.07176 143.701C5.7111 142.839 6.07175 141.978 7.0335 141.377C7.39416 141.156 7.77485 141.016 8.1355 140.836C8.3559 140.716 8.53623 140.836 8.69652 140.936C11.161 142.539 13.9861 143.2 16.7912 143.901C17.0918 143.981 17.4123 143.981 17.4925 143.561C17.5726 143.12 17.1919 143.1 16.9114 143.04C14.3869 142.499 11.9424 141.757 9.65827 140.535C9.09725 140.235 8.85681 139.854 8.87685 139.193C8.99707 135.326 9.89871 131.739 12.3632 128.654C13.1045 127.712 14.0062 126.971 15.0681 126.41C17.1118 125.308 18.3941 125.588 20.0572 127.251C21.4998 128.714 22.2812 130.557 22.9624 132.461C23.844 134.925 24.2448 137.51 24.5453 140.094C24.5653 140.195 24.5453 140.275 24.5653 140.375C24.5854 140.655 24.7256 140.876 25.0061 140.856C25.3267 140.836 25.4069 140.555 25.3868 140.275C25.2866 139.393 25.2065 138.532 25.0662 137.65C24.6254 134.765 23.8841 131.96 22.5216 129.355C21.8604 128.073 21.0189 126.931 19.8969 126.029C18.895 125.268 17.8331 124.807 16.4506 125.187ZM25.2466 144.763C28.3723 144.803 31.558 144.623 34.6837 144.022C36.1464 143.741 37.569 143.34 38.8914 142.679C39.1719 142.539 39.2921 142.339 39.1719 142.038C39.0316 141.677 38.7711 141.878 38.5507 141.938C37.7292 142.198 36.9278 142.539 36.1063 142.759C32.6801 143.641 29.1537 143.881 25.6273 143.941C23.9242 143.961 22.2211 143.861 20.518 143.621C20.2776 143.581 20.0171 143.561 19.8969 143.861C19.8167 144.062 19.8167 144.262 19.997 144.362C20.1573 144.442 20.3577 144.482 20.538 144.502C22.1009 144.663 23.6437 144.683 25.2466 144.763ZM18.5745 144.162C18.875 144.182 19.0754 144.082 19.0954 143.821C19.1355 143.461 18.8149 143.4 18.5745 143.36C18.334 143.32 18.1136 143.461 18.0936 143.701C18.0535 144.062 18.3541 144.102 18.5745 144.162Z" fill="white"/>
<path d="M135.608 112.465C134.085 112.445 132.523 112.946 130.98 113.567C130.759 113.647 130.519 113.828 130.319 113.587C130.098 113.307 130.379 113.147 130.499 112.966C134.206 107.597 141.098 106.374 146.628 108.558C149.033 109.5 151.096 111.003 153.16 112.485C153.26 112.545 153.34 112.626 153.441 112.666C153.962 112.926 154.202 113.267 154.022 113.908C153.821 114.709 154.142 115.411 154.643 116.052C155.284 116.853 156.105 117.394 157.047 117.735C157.768 117.995 158.45 117.875 159.111 117.535C159.371 117.394 159.572 117.354 159.832 117.555C160.814 118.296 161.816 119.037 162.798 119.779C163.238 120.119 163.298 120.7 162.898 121.301C161.976 122.684 161.034 124.066 160.093 125.449C159.612 126.15 159.111 126.811 158.61 127.493C158.209 128.054 157.829 128.134 157.288 127.733C156.266 127.012 155.244 126.27 154.222 125.549C154.022 125.409 153.841 125.269 153.861 124.968C153.921 123.145 152.9 121.782 151.156 121.261C149.774 120.861 148.311 121.402 147.269 122.764C146.849 123.305 146.468 123.846 146.087 124.407C145.927 124.627 145.787 124.688 145.546 124.507C143.723 123.185 141.96 121.782 140.197 120.4C139.956 120.219 139.996 120.039 140.156 119.819C140.477 119.338 140.818 118.857 141.058 118.336C142 116.252 141.218 114.128 139.155 113.167C138.033 112.646 136.931 112.445 135.608 112.465Z" fill="white"/>
<path d="M119.739 147.127C119.719 146.486 119.939 145.945 120.34 145.424C123.887 140.836 127.573 136.388 131.34 131.98C133.985 128.874 136.65 125.768 139.295 122.643C139.655 122.222 139.896 122.242 140.296 122.543C141.519 123.464 142.781 124.366 144.003 125.267C144.624 125.728 144.624 125.748 144.183 126.41C142.4 129.114 140.597 131.799 138.814 134.524C137.251 136.889 135.788 139.313 134.125 141.597C132.542 143.801 130.939 146.005 129.357 148.209C128.795 148.991 128.234 149.752 127.693 150.533C126.852 151.756 125.489 152.277 124.187 151.856C123.546 151.655 123.145 151.134 122.644 150.754C122.003 150.253 121.422 149.692 120.761 149.231C120 148.73 119.759 147.989 119.739 147.127Z" fill="white"/>
<path d="M100.803 65.6589C100.803 66.9413 100.803 68.2036 100.803 69.4859C100.803 69.8866 100.663 70.0068 100.262 69.9868C97.8979 69.9668 95.5336 69.9668 93.1893 69.9868C92.7084 69.9868 92.5281 69.8465 92.5081 69.3456C92.488 68.4039 92.5281 67.4823 92.5281 66.5405C92.5281 64.9777 92.5081 63.4349 92.488 61.8721C92.488 61.5315 92.5281 61.291 92.9489 61.291C95.3933 61.3111 97.8578 61.311 100.302 61.311C100.703 61.311 100.763 61.4914 100.763 61.832C100.743 63.1143 100.763 64.3766 100.763 65.6589C100.783 65.6589 100.783 65.6589 100.803 65.6589Z" fill="#C8963C"/>
<path d="M103.009 65.6404C103.009 64.338 103.009 63.0156 103.009 61.7132C103.009 61.4327 103.089 61.3125 103.39 61.3125C105.854 61.3125 108.339 61.3125 110.803 61.3125C111.104 61.3125 111.204 61.4127 111.204 61.7132C111.204 64.338 111.224 66.9628 111.244 69.5875C111.244 69.8881 111.104 70.0283 110.803 70.0283C108.359 70.0283 105.894 70.0283 103.45 70.0484C103.009 70.0484 103.029 69.8079 103.029 69.5074C102.989 68.185 102.989 66.9227 103.009 65.6404Z" fill="#C8963C"/>
<path d="M100.824 76.6199C100.904 77.9223 100.704 79.2046 100.824 80.5069C100.844 80.8075 100.744 80.9277 100.423 80.9277C98.0188 80.9077 95.6144 80.9077 93.2301 80.9277C92.7492 80.9277 92.5288 80.8275 92.5288 80.2665C92.5488 77.7419 92.5288 75.1973 92.5288 72.6727C92.5288 72.3722 92.629 72.292 92.9095 72.292C95.374 72.292 97.8585 72.272 100.323 72.252C100.684 72.252 100.824 72.3521 100.804 72.7328C100.744 74.0352 100.784 75.3376 100.824 76.6199Z" fill="#C8963C"/>
<path d="M111.203 76.5411C111.203 77.8234 111.203 79.0857 111.203 80.368C111.203 80.7688 111.083 80.9291 110.662 80.9291C108.317 80.909 105.973 80.909 103.629 80.9491C103.128 80.9491 102.968 80.7888 102.968 80.3079C102.988 78.0038 102.988 75.6996 102.988 73.3954C102.988 72.3134 102.988 72.3134 104.05 72.3134C106.194 72.2934 108.358 72.2934 110.501 72.2533C111.042 72.2333 111.203 72.4336 111.183 72.9546C111.183 74.1568 111.203 75.3589 111.203 76.5411Z" fill="#C8963C"/>
</svg>
