<svg width="176" height="68" viewBox="0 0 176 68" fill="none" xmlns="http://www.w3.org/2000/svg">
<path d="M68.8107 3.09539C68.3917 3.27498 68.3617 3.5743 68.3019 3.81375C67.5536 6.1484 66.7754 8.51298 66.057 10.8476C65.8774 11.4463 65.608 11.6258 64.9795 11.6258C63.1237 11.5959 63.1237 11.6258 62.555 9.88982C61.8965 7.88442 61.268 5.90895 60.6394 3.90354C60.5496 3.60423 60.4898 3.30491 60.2503 3.09539C59.9809 3.12532 60.0408 3.33485 60.0408 3.48451C59.8911 5.87902 59.7415 8.30346 59.6517 10.698C59.6218 11.5061 59.3224 11.6857 58.6041 11.6558C56.8082 11.566 56.9279 12.015 57.0776 9.91976C57.2871 7.13614 57.4068 4.32259 57.5565 1.53897C57.6163 0.281851 57.6463 0.281848 58.8735 0.281848C59.6517 0.281848 60.4299 0.311768 61.238 0.251905C61.8666 0.221974 62.136 0.461436 62.2856 1.03013C62.8543 2.94574 63.4829 4.86136 64.1115 6.77697C64.1713 7.01642 64.2312 7.25585 64.5604 7.43544C65.1591 5.54976 65.7577 3.75388 66.3264 1.89813C66.8652 0.221974 66.8352 0.221981 68.6311 0.221981C69.0801 0.221981 69.529 0.221981 69.978 0.221981C71.2351 0.19205 71.2651 0.192053 71.3249 1.4791C71.5345 4.6219 71.6841 7.79463 71.8936 10.9674C71.9236 11.4463 71.7739 11.6258 71.295 11.6258C68.8406 11.5959 69.3195 11.9551 69.1699 9.6803C69.0801 7.52524 68.9304 5.34024 68.8107 3.09539Z" fill="#072945"/>
<path d="M118.228 5.96904C118.228 4.32281 118.228 2.67657 118.228 1.00041C118.228 0.491578 118.347 0.222202 118.946 0.222202C120.652 0.252134 122.358 0.222206 124.064 0.282069C125.95 0.341932 127.387 1.44939 127.896 3.15548C128.345 4.68198 127.746 6.3282 126.309 7.43566C125.98 7.70505 125.92 7.91458 126.1 8.27376C126.519 9.14177 126.908 10.0696 127.357 10.9376C127.656 11.5363 127.506 11.6859 126.908 11.656C126.878 11.656 126.848 11.656 126.818 11.656C125.381 11.9254 124.394 11.4764 124.034 9.97983C124.004 9.83018 123.885 9.68052 123.825 9.53086C123.226 8.24381 122.687 7.97443 121.281 8.24382C120.922 8.30368 120.862 8.54313 120.862 8.84244C120.862 9.5608 120.832 10.3091 120.862 11.0274C120.892 11.5063 120.712 11.656 120.233 11.6859C118.258 11.8057 118.258 11.8356 118.258 9.89004C118.198 8.54313 118.228 7.25609 118.228 5.96904ZM120.802 4.17315C120.802 4.68199 120.802 5.19081 120.802 5.69965C120.802 6.05882 120.922 6.26835 121.341 6.26835C122.119 6.26835 122.927 6.29827 123.705 6.23841C124.992 6.11868 125.77 4.80171 125.351 3.57452C124.992 2.55686 124.364 2.19767 122.867 2.16774C120.832 2.16774 120.832 2.16775 120.802 4.17315Z" fill="#072945"/>
<path d="M101.497 11.7158C100.39 11.7158 98.9532 11.626 97.6662 10.758C96.9777 10.2791 96.4689 9.6805 96.2594 8.84242C96.1396 8.42338 96.2294 8.24379 96.6485 8.24379C97.3968 8.24379 98.175 8.24379 98.9233 8.24379C99.1627 8.24379 99.3423 8.33359 99.4022 8.60297C99.6117 9.41112 100.24 9.65058 100.989 9.7703C101.677 9.89003 102.335 9.86008 102.994 9.68049C103.593 9.53084 103.982 9.17166 104.042 8.5431C104.101 7.88461 103.623 7.55537 103.114 7.40571C102.186 7.13633 101.258 6.95675 100.33 6.77716C99.5818 6.6275 98.8634 6.41797 98.1451 6.14859C96.8879 5.63976 96.1396 4.59217 96.1396 3.33505C96.1396 1.9582 96.8281 0.940535 98.2049 0.491564C100.24 -0.196858 102.276 -0.166938 104.281 0.611279C105.179 0.970456 105.897 1.59902 106.256 2.55682C106.466 3.12552 106.406 3.54457 105.598 3.48471C105.209 3.45477 104.82 3.45477 104.431 3.48471C103.802 3.51464 103.203 3.57449 103.054 2.70648C102.994 2.40716 102.695 2.22759 102.365 2.13779C101.467 1.83848 100.599 1.8684 99.7314 2.16772C99.2525 2.31737 98.8634 2.58675 98.8335 3.15545C98.8035 3.72415 99.1627 4.02347 99.6117 4.23299C100.689 4.71189 101.886 4.80169 103.024 5.13093C103.712 5.31052 104.371 5.52003 104.999 5.84928C105.987 6.32818 106.705 7.0166 106.676 8.24379C106.676 9.56077 106.167 10.5485 104.969 11.1771C103.982 11.626 102.934 11.6859 101.497 11.7158Z" fill="#072945"/>
<path d="M79.0751 0.252126C81.1703 0.252126 81.1703 0.252137 81.8588 2.22761C82.8465 5.13096 83.8342 8.06424 84.822 10.9676C84.9716 11.4465 84.9118 11.656 84.373 11.6261C84.3131 11.6261 84.2533 11.6261 84.1934 11.6261C82.3676 11.6859 82.3676 11.6859 81.769 9.97983C81.5894 9.41114 81.2901 9.17169 80.6914 9.20163C79.584 9.26149 78.4466 9.23156 77.3391 9.20163C76.8303 9.20163 76.531 9.35129 76.3514 9.86012C75.663 11.7757 75.663 11.7458 73.6576 11.6261C73.1786 11.5961 73.0889 11.4465 73.2385 10.9975C74.4058 7.5554 75.5732 4.11329 76.7106 0.671173C76.8303 0.311997 77.0697 0.222202 77.4289 0.222202C77.9677 0.252134 78.5064 0.252126 79.0751 0.252126ZM79.135 2.25753C79.0751 2.25753 78.9853 2.25753 78.9255 2.25753C78.4166 3.75411 77.9078 5.25068 77.399 6.74725C77.2792 7.07649 77.4888 7.22616 77.7881 7.22616C78.5962 7.22616 79.4044 7.22616 80.2125 7.22616C80.6016 7.22616 80.7214 7.04656 80.6316 6.68738C80.1527 5.19081 79.6438 3.72417 79.135 2.25753Z" fill="#072945"/>
<path d="M134.869 11.7157C131.397 11.6858 129.122 9.38109 129.152 5.96891C129.182 2.40708 131.547 0.0125671 134.929 0.0424985C138.521 0.0724299 140.855 2.43701 140.855 6.11857C140.855 9.47089 138.431 11.7457 134.869 11.7157ZM131.726 5.93897C131.726 6.17842 131.696 6.44781 131.726 6.68726C131.906 8.39335 133.043 9.62054 134.689 9.80013C136.126 9.97972 137.563 9.02192 138.012 7.52535C138.401 6.17844 138.311 4.86144 137.683 3.60433C137.174 2.58666 136.306 1.98804 135.138 1.92817C133.911 1.86831 132.953 2.37714 132.325 3.45467C131.906 4.23288 131.666 5.04103 131.726 5.93897Z" fill="#072945"/>
<path d="M86.3205 5.93912C86.3205 4.26296 86.3205 2.58681 86.3205 0.910648C86.3205 0.401814 86.4702 0.222222 86.979 0.252154C89.2837 0.282085 91.5585 0.282085 93.8632 0.252154C94.5217 0.252154 94.7013 0.49162 94.6414 1.09025C94.5816 1.59908 94.821 2.22763 93.8632 2.1977C92.4564 2.13783 91.0497 2.22763 89.6728 2.16777C89.0443 2.13784 88.8647 2.37729 88.8647 3.00585C88.8347 5.07111 88.8347 5.07112 90.9 5.07112C91.3789 5.07112 91.8578 5.07112 92.3367 5.07112C93.3245 5.07112 93.7734 5.75954 93.3843 6.71735C93.2646 7.04659 92.9952 6.98672 92.7558 6.98672C91.7381 6.98672 90.7504 7.01665 89.7327 6.98672C89.1341 6.95679 88.8946 7.13638 88.8946 7.79487C88.8946 9.71048 88.8647 9.71049 90.7803 9.71049C91.8578 9.71049 92.9653 9.74042 94.0428 9.71049C94.7911 9.68056 94.7013 10.1595 94.6714 10.6084C94.6414 11.0574 94.9408 11.686 94.0428 11.656C91.6782 11.6261 89.2837 11.6261 86.9191 11.656C86.4103 11.656 86.3205 11.4465 86.3504 10.9975C86.3205 9.32138 86.2906 7.64521 86.3205 5.93912Z" fill="#072945"/>
<path d="M112.121 0.252019C113.408 0.252019 114.695 0.311889 115.982 0.222095C116.88 0.162232 116.79 0.671066 116.82 1.26969C116.85 1.95812 116.67 2.25742 115.952 2.19756C115.353 2.1377 114.725 2.22749 114.096 2.19756C113.497 2.16763 113.348 2.40709 113.348 2.97579C113.378 5.57982 113.318 8.18385 113.348 10.7879C113.348 11.4164 113.228 11.6559 112.51 11.6559C110.744 11.626 110.744 11.6559 110.744 9.88994C110.744 7.70494 110.744 5.51996 110.744 3.33497C110.744 2.19758 110.744 2.19756 109.576 2.19756C109.008 2.19756 108.469 2.19756 107.9 2.19756C107.122 2.19756 107.302 1.62887 107.272 1.1799C107.242 0.730932 107.182 0.252019 107.9 0.252019C109.337 0.252019 110.744 0.252019 112.121 0.252019Z" fill="#072945"/>
<path d="M68.3005 19.7264C68.3005 18.1101 68.3305 16.4639 68.3005 14.8476C68.3005 14.2789 68.4502 14.0395 69.0488 14.0694C70.5454 14.0993 72.012 14.0993 73.5086 14.0694C74.2569 14.0694 74.9752 14.1891 75.6337 14.4585C78.4473 15.566 78.9561 19.1877 76.5915 21.0734C76.0827 21.4625 75.9331 21.7618 76.2623 22.3604C76.7113 23.1386 76.9806 24.0066 77.4296 24.7849C77.7589 25.4134 77.5493 25.4733 76.9806 25.4733C74.9453 25.5032 74.9453 25.5032 74.0773 23.7073C74.0474 23.6175 74.0174 23.5577 73.9875 23.4679C73.2392 21.9114 73.2392 21.9114 71.5331 22.0312C71.0542 22.0611 70.8746 22.2108 70.9046 22.6897C70.9345 23.408 70.9046 24.1563 70.9046 24.8747C70.9046 25.2937 70.7549 25.4433 70.3059 25.4733C68.3305 25.6229 68.3305 25.6229 68.3305 23.6774C68.3005 22.3305 68.3005 21.0434 68.3005 19.7264ZM70.8447 18.0204C70.8447 18.4394 70.8746 18.8584 70.8447 19.2775C70.7848 19.906 71.0842 20.1156 71.6828 20.0856C72.3113 20.0557 72.9698 20.0856 73.5984 20.0557C74.7059 19.9958 75.4242 19.2775 75.4841 18.2C75.5739 16.7632 74.7358 15.985 73.1195 15.985C70.8746 15.985 70.8746 15.985 70.8447 18.0204Z" fill="#072945"/>
<path d="M114.007 19.7267C114.007 18.1104 114.037 16.4942 114.007 14.8479C114.007 14.3092 114.126 14.0398 114.755 14.0398C116.251 14.0697 117.778 14.0398 119.275 14.0697C119.843 14.0697 120.382 14.1296 120.921 14.3092C122.357 14.7581 123.375 15.6261 123.704 17.1526C124.004 18.7091 123.615 20.0859 122.328 21.0437C121.699 21.4927 121.699 21.8519 122.028 22.4804C122.477 23.2886 122.806 24.1566 123.225 24.9647C123.405 25.3538 123.345 25.4736 122.926 25.4736C122.298 25.4736 121.639 25.4436 121.011 25.4736C120.651 25.4736 120.532 25.264 120.412 24.9947C120.053 24.2464 119.694 23.558 119.364 22.8097C119.125 22.241 118.766 21.9716 118.137 22.0614C117.838 22.0913 117.509 22.0913 117.209 22.0614C116.73 22.0315 116.551 22.241 116.581 22.7199C116.611 23.4382 116.551 24.1865 116.581 24.9049C116.581 25.3239 116.431 25.4736 116.012 25.5035C114.037 25.6532 114.037 25.6532 114.037 23.7076C114.007 22.3607 114.007 21.0437 114.007 19.7267ZM118.317 16.0152C118.047 16.0152 117.748 16.0452 117.479 16.0152C116.79 15.9554 116.521 16.1948 116.551 16.9132C116.611 17.7513 116.581 18.5894 116.551 19.4274C116.551 19.9363 116.76 20.1458 117.239 20.1158C117.868 20.0859 118.526 20.1158 119.155 20.1158C120.382 20.0859 121.16 19.3376 121.19 18.1404C121.22 16.8833 120.442 16.0751 119.185 16.0452C118.945 15.9853 118.616 16.0152 118.317 16.0152Z" fill="#072945"/>
<path d="M85.0626 25.5333C81.5008 25.5333 79.196 23.2285 79.196 19.7266C79.196 16.3144 81.6504 13.8301 84.9728 13.86C88.5646 13.86 90.8992 16.2545 90.8992 19.8463C90.8693 23.3183 88.5945 25.5333 85.0626 25.5333ZM88.3251 19.6068C88.3551 18.9483 88.1755 18.1701 87.7864 17.4218C87.2476 16.3443 86.3497 15.8055 85.1823 15.7457C83.9252 15.7157 82.9674 16.2844 82.3688 17.3919C81.8899 18.2599 81.7103 19.1878 81.7701 20.1456C81.8899 21.9116 82.7878 23.1986 84.1647 23.5278C86.5292 24.1265 88.385 22.4503 88.3251 19.6068Z" fill="#072945"/>
<path d="M92.5748 19.7267C92.5748 18.1104 92.6047 16.4642 92.5748 14.8479C92.5449 14.2194 92.7544 14.0398 93.3829 14.0398C95.1189 14.0996 96.855 14.0398 98.591 14.0996C100.537 14.1894 102.033 15.5663 102.332 17.3622C102.632 19.188 101.644 20.924 99.9379 21.6124C98.7706 22.0913 97.5135 22.0015 96.2863 22.0015C95.1788 22.0015 95.1788 22.0015 95.1788 23.0491C95.1788 23.2586 95.1788 23.4382 95.1788 23.6478C95.1489 25.5334 95.1489 25.5035 93.2632 25.4436C92.7244 25.4137 92.6047 25.2341 92.6047 24.7552C92.6047 23.0791 92.5748 21.4029 92.5748 19.7267ZM95.1489 18.0206C95.1489 20.1158 95.1489 20.1159 97.2142 20.0859C97.5135 20.0859 97.8427 20.0859 98.142 20.056C99.04 19.9363 99.6685 19.3077 99.7583 18.4098C99.9379 16.9431 99.1896 16.0452 97.6931 16.0152C95.1489 15.9254 95.1489 15.9255 95.1489 18.0206Z" fill="#072945"/>
<path d="M103.889 19.7567C103.889 18.1104 103.919 16.4642 103.889 14.7881C103.889 14.2493 104.009 14.0398 104.578 14.0398C106.912 14.0697 109.217 14.0697 111.552 14.0398C112.39 14.0398 112.24 14.5785 112.24 15.0575C112.24 15.5064 112.36 16.0152 111.582 15.9853C110.115 15.9554 108.678 15.9853 107.212 15.9853C106.673 15.9853 106.463 16.1649 106.463 16.7037C106.523 19.2778 106.104 18.7989 108.559 18.8587C108.978 18.8587 109.397 18.8587 109.816 18.8587C110.893 18.8587 111.223 19.3077 110.953 20.3553C110.833 20.7743 110.564 20.7743 110.235 20.7743C109.217 20.7743 108.229 20.8043 107.212 20.7743C106.673 20.7743 106.433 20.9539 106.463 21.4927C106.523 23.9171 106.134 23.4083 108.349 23.4682C109.427 23.4981 110.474 23.4981 111.552 23.4682C112.061 23.4682 112.24 23.5879 112.24 24.1267C112.27 25.4137 112.3 25.4137 111.013 25.4137C108.888 25.4137 106.763 25.3838 104.638 25.4137C104.069 25.4137 103.859 25.2641 103.859 24.6654C103.889 23.0791 103.859 21.4029 103.889 19.7567Z" fill="#072945"/>
<path d="M57.0459 19.7567C57.0459 18.1404 57.0758 16.5241 57.0459 14.8779C57.0459 14.2792 57.1955 14.0398 57.854 14.0398C59.5302 14.0996 61.2063 14.0098 62.8825 14.0996C65.7858 14.2194 67.4919 16.7635 66.5341 19.4574C66.0253 20.924 64.4988 21.9117 62.6131 22.0015C61.8349 22.0315 61.0567 22.0315 60.2785 22.0015C59.7696 22.0015 59.59 22.2111 59.59 22.69C59.62 23.3784 59.5601 24.0967 59.59 24.7852C59.62 25.2641 59.4404 25.4436 58.9615 25.4137C56.5969 25.3538 57.0459 25.7729 57.0159 23.5879C57.0159 22.3308 57.0459 21.0437 57.0459 19.7567ZM61.3261 16.0152C61.0567 16.0152 60.7574 16.0452 60.488 16.0152C59.7696 15.9254 59.5601 16.2248 59.59 16.9132C59.6499 17.7513 59.62 18.5893 59.59 19.4274C59.5601 19.9363 59.7696 20.1158 60.2785 20.1158C60.937 20.0859 61.6254 20.1158 62.2839 20.1158C63.4512 20.0859 64.2593 19.2179 64.2593 18.0506C64.2593 16.9132 63.4811 16.105 62.3437 16.0452C61.9845 15.9853 61.6553 16.0152 61.3261 16.0152Z" fill="#072945"/>
<path d="M136.334 14.0696C137.262 13.8003 137.801 14.339 138.22 15.237C138.729 16.3145 139.387 17.3322 139.956 18.4097C140.255 18.9485 140.435 19.0383 140.764 18.4396C141.393 17.2424 142.081 16.105 142.68 14.8778C143.009 14.2492 143.398 14.0098 144.117 14.0397C146.002 14.1295 146.002 14.0996 145.104 15.7159C144.266 17.2124 143.488 18.739 142.59 20.1757C141.842 21.3729 141.602 22.6001 141.632 23.977C141.692 25.6531 141.961 25.4136 140.195 25.4436C139.088 25.4735 138.938 25.4136 139.118 24.396C139.507 22.0314 138.1 20.2954 137.113 18.4097C136.484 17.1825 135.826 15.9853 135.107 14.8179C134.688 14.1295 134.928 14.0098 135.586 14.0696C135.766 14.0996 136.005 14.0696 136.334 14.0696Z" fill="#072945"/>
<path d="M129.301 14.0696C130.648 14.0696 131.995 14.0996 133.342 14.0696C133.97 14.0397 134.06 14.339 133.97 14.8479C133.88 15.2968 134.359 16.075 133.312 16.0152C132.683 15.9852 132.025 16.0451 131.366 16.0152C130.708 15.9553 130.498 16.1948 130.498 16.8533C130.528 19.4573 130.498 22.0613 130.528 24.6654C130.528 25.2939 130.349 25.5034 129.72 25.4735C127.655 25.3837 127.954 25.7728 127.954 23.6776C127.924 21.4028 127.924 19.128 127.954 16.8832C127.954 16.1648 127.715 15.9553 127.026 15.9853C126.427 16.0152 125.799 15.9553 125.17 16.0152C124.422 16.075 124.452 15.5961 124.482 15.0873C124.512 14.6084 124.332 14.0397 125.17 14.0696C126.547 14.0996 127.924 14.0696 129.301 14.0696Z" fill="#072945"/>
<path d="M134.658 32.1977C134.39 32.4062 134.509 32.6742 134.509 32.8826C134.509 34.8181 134.479 36.7238 134.509 38.6592C134.509 39.1654 134.36 39.3739 133.854 39.3441C131.561 39.2548 131.978 39.6716 131.948 37.5575C131.918 34.6692 131.978 31.7511 131.948 28.8628C131.948 28.2077 132.157 28.0588 132.782 27.9695C134.42 27.7611 135.432 28.297 136.206 29.8156C137.159 31.7213 138.41 33.4781 139.541 35.3243C139.66 35.5029 139.72 35.8305 139.958 35.7709C140.315 35.7114 140.137 35.354 140.137 35.1456C140.166 33.0613 140.166 30.9769 140.137 28.8628C140.137 28.2077 140.315 27.9695 141 27.9993C142.995 28.0886 142.697 27.7313 142.697 29.6667C142.727 32.6146 142.697 35.5625 142.727 38.5401C142.727 39.1357 142.549 39.3441 141.923 39.3739C139.184 39.4334 139.184 39.4334 137.784 37.1109C136.861 35.5923 135.938 34.0737 134.985 32.5551C134.896 32.3764 134.836 32.2275 134.658 32.1977Z" fill="#072945"/>
<path d="M150.173 39.4333C148.446 39.4631 146.897 39.2546 145.617 38.1827C145.468 38.0636 145.319 37.9445 145.2 37.7658C144.873 37.2894 144.366 36.7534 144.634 36.1876C144.873 35.6814 145.558 36.0685 146.004 35.9792C146.242 35.9494 146.51 35.9792 146.749 35.9792C147.225 35.9494 147.642 35.9494 147.821 36.5747C147.94 37.0214 148.356 37.2894 148.803 37.4085C149.667 37.6169 150.5 37.5871 151.364 37.3787C151.9 37.2596 152.257 36.9023 152.317 36.3365C152.406 35.741 152.049 35.4135 151.543 35.205C150.56 34.8179 149.488 34.7286 148.476 34.4606C147.255 34.1628 145.945 33.9544 145.111 32.8229C143.92 31.215 144.515 28.952 146.391 28.2671C148.446 27.5227 150.56 27.5227 152.585 28.3564C153.567 28.7733 154.282 29.4879 154.61 30.5599C154.729 30.9768 154.61 31.215 154.163 31.215C153.478 31.215 152.763 31.215 152.079 31.215C151.811 31.215 151.572 31.0959 151.513 30.8279C151.245 29.875 150.5 29.7261 149.696 29.6964C149.19 29.6666 148.684 29.6964 148.208 29.8453C147.672 29.9941 147.195 30.2919 147.165 30.8874C147.106 31.5425 147.612 31.7807 148.118 31.9892C149.131 32.3763 150.203 32.5549 151.275 32.7931C151.959 32.942 152.615 33.1802 153.24 33.478C154.342 33.9842 155.056 34.7584 154.997 36.0388C154.937 37.4085 154.282 38.3613 153.061 38.8973C152.079 39.3737 151.036 39.4333 150.173 39.4333Z" fill="#072945"/>
<path d="M62.5089 39.4331C61.1392 39.4331 59.7695 39.2842 58.5784 38.51C57.8638 38.0336 57.3278 37.4381 57.1194 36.5448C57.03 36.1279 57.1193 35.979 57.5362 35.979C58.2509 35.979 58.9953 35.979 59.7099 35.979C59.9481 35.979 60.1268 36.0088 60.2161 36.3066C60.4841 37.2594 61.2583 37.4381 62.092 37.5274C62.7173 37.5869 63.3129 37.5274 63.9084 37.3785C64.4741 37.2296 64.8017 36.8128 64.8612 36.247C64.9208 35.6812 64.5337 35.3537 64.0573 35.2048C63.1938 34.9368 62.3302 34.7284 61.4667 34.5497C60.7223 34.4009 60.0077 34.1924 59.293 33.9542C57.834 33.448 57.0002 32.4356 57.0002 31.1254C57.0002 29.6664 57.6851 28.654 59.2335 28.1776C61.1987 27.582 63.1938 27.5523 65.0995 28.386C66.0523 28.8029 66.7967 29.458 67.0945 30.5001C67.2434 30.9766 67.1243 31.2445 66.5585 31.2148C66.0523 31.185 65.5461 31.185 65.0697 31.2148C64.4742 31.2743 64.0573 31.1254 63.8786 30.4704C63.7 29.9046 63.164 29.7855 62.6578 29.6962C61.9431 29.5771 61.2285 29.6068 60.5139 29.8451C60.0374 30.0237 59.6801 30.2917 59.6801 30.8574C59.6801 31.4232 60.0374 31.6912 60.4841 31.8996C61.5858 32.376 62.8067 32.4952 63.9679 32.7929C64.6826 33.0014 65.3972 33.2396 66.0523 33.6267C67.9282 34.7284 67.9878 37.319 66.1714 38.5398C65.0697 39.3735 63.7893 39.4033 62.5089 39.4331Z" fill="#072945"/>
<path d="M124.296 39.4334C120.901 39.4036 118.579 37.081 118.608 33.7759C118.668 30.1134 120.991 27.7908 124.564 27.7908C127.988 27.8206 130.281 30.3218 130.251 33.9545C130.221 37.2597 127.809 39.4632 124.296 39.4334ZM121.169 33.6865C121.169 33.9545 121.169 34.2523 121.199 34.5203C121.378 36.158 122.569 37.3788 124.147 37.5575C125.606 37.7063 126.976 36.8131 127.452 35.2945C127.869 33.9843 127.78 32.6444 127.154 31.3937C126.618 30.3218 125.725 29.6965 124.504 29.6965C123.313 29.6965 122.42 30.2027 121.824 31.2151C121.348 31.9893 121.169 32.823 121.169 33.6865Z" fill="#072945"/>
<path d="M74.4176 39.4333C70.904 39.3439 68.6112 36.9916 68.7005 33.5375C68.7898 30.1132 71.2613 27.7311 74.6558 27.7907C78.1099 27.8502 80.4325 30.3217 80.3431 33.8651C80.2836 37.3191 77.9312 39.5226 74.4176 39.4333ZM77.7823 33.4482C77.8121 32.9122 77.6037 32.1678 77.2762 31.4532C76.2638 29.339 73.4052 29.071 72.095 31.0065C71.1422 32.406 71.0231 33.9842 71.6186 35.5325C72.2439 37.1405 73.6434 37.7956 75.3109 37.4382C76.8593 37.1107 77.8121 35.7112 77.7823 33.4482Z" fill="#072945"/>
<path d="M91.3319 31.7806C91.3319 30.798 91.3617 29.8154 91.3319 28.8625C91.3021 28.267 91.451 27.999 92.1061 27.999C93.8927 27.999 93.8629 27.9692 93.8927 29.726C93.8927 31.3637 93.8629 33.0015 93.9225 34.6689C94.0118 36.7831 95.5602 37.9443 97.5552 37.4679C98.5081 37.2297 99.0738 36.6044 99.4014 35.7111C99.58 35.1751 99.6396 34.6392 99.6396 34.0734C99.6396 32.2868 99.6693 30.5002 99.6396 28.7137C99.6396 28.2372 99.7587 28.0288 100.295 28.0288C102.558 28.0883 102.141 27.7608 102.171 29.8452C102.2 31.3935 102.2 32.9717 102.141 34.5201C102.051 37.4977 100.176 39.3141 97.2277 39.4332C95.1135 39.5225 93.2376 39.1056 92.0466 37.1106C91.6595 36.4555 91.3915 35.7409 91.3915 34.9667C91.3617 33.8948 91.3915 32.8526 91.3915 31.7806C91.3617 31.7806 91.3319 31.7806 91.3319 31.7806Z" fill="#072945"/>
<path d="M108.245 28.0288C109.585 28.0288 110.925 28.0586 112.265 28.0288C113.009 27.999 113.009 28.4159 112.979 28.9221C112.95 29.4283 113.128 30.0536 112.235 29.9643C111.788 29.9345 111.342 29.9643 110.895 29.9643C109.376 29.994 109.555 29.7856 109.525 31.3638C109.525 33.7459 109.495 36.1578 109.525 38.5399C109.525 39.2248 109.317 39.4034 108.662 39.3737C106.696 39.2843 106.964 39.6714 106.964 37.6466C106.964 35.3538 106.935 33.0908 106.964 30.798C106.964 30.1132 106.726 29.9047 106.101 29.9643C105.535 29.994 104.969 29.9345 104.433 29.9941C103.659 30.0834 103.481 29.7558 103.51 29.0412C103.54 28.3861 103.6 27.999 104.404 28.0586C105.684 28.0884 106.964 28.0288 108.245 28.0288Z" fill="#072945"/>
<path d="M82.0132 33.7163C82.0132 32.0786 82.0429 30.4409 82.0132 28.7734C82.0132 28.2076 82.1323 27.9992 82.7576 27.9992C84.5739 28.029 84.574 27.9992 84.574 29.7858C84.574 32.0488 84.6037 34.3118 84.574 36.545C84.574 37.2299 84.8122 37.4085 85.4375 37.4085C86.8667 37.3788 88.2662 37.4086 89.6955 37.3788C90.3506 37.349 90.559 37.5872 90.4697 38.2125C90.4101 38.7187 90.7079 39.344 89.7253 39.344C87.3729 39.3142 85.0504 39.3142 82.698 39.344C82.1918 39.344 81.9834 39.2249 81.9834 38.6294C82.043 37.0215 82.0132 35.3838 82.0132 33.7163Z" fill="#072945"/>
<path d="M116.937 33.7161C116.937 35.3538 116.907 36.9915 116.937 38.659C116.937 39.195 116.788 39.3736 116.223 39.3736C114.376 39.4034 114.376 39.4034 114.376 37.5275C114.376 34.6689 114.406 31.7806 114.376 28.9221C114.376 28.2372 114.555 27.999 115.27 28.0288C116.937 28.0586 116.937 28.0288 116.937 29.726C116.937 31.0362 116.937 32.3762 116.937 33.7161Z" fill="#072945"/>
<path d="M40.2258 6.60463C40.2258 7.71477 40.2309 8.82491 40.2207 9.94016C40.2207 10.0936 40.2718 10.1806 40.3997 10.2625C41.1722 10.7331 41.9447 11.2038 42.7121 11.6847C43.8938 12.4213 45.0705 13.1682 46.2471 13.91C46.7996 14.2579 47.3419 14.6109 47.8944 14.9588C47.9711 15.0048 47.9967 15.056 47.9967 15.143C47.9967 16.2633 47.9967 17.3837 47.9967 18.5041C47.9967 18.5399 48.0121 18.5859 47.9763 18.6115C47.9302 18.6422 47.8944 18.6013 47.8637 18.5757C47.2601 18.1818 46.6564 17.7827 46.0476 17.3888C44.6919 16.514 43.3362 15.6443 41.9805 14.7695C41.1415 14.2323 40.3025 13.7003 39.4635 13.1631C38.4966 12.5441 37.5349 11.9149 36.568 11.2959C35.7494 10.774 34.9258 10.2573 34.1072 9.73552C33.1659 9.13697 32.2246 8.53842 31.2833 7.93987C30.1629 7.22877 29.0426 6.52278 27.9222 5.81168C27.119 5.3001 26.3158 4.78851 25.5075 4.28205C25.1341 4.04672 24.7606 3.82162 24.3872 3.58118C24.3104 3.53514 24.2593 3.55048 24.1928 3.59141C23.0724 4.30763 21.952 5.02384 20.8317 5.74006C19.256 6.74276 17.6803 7.74035 16.1046 8.73794C14.8513 9.53089 13.5979 10.3238 12.3445 11.1168C10.5795 12.2372 8.81969 13.3678 7.04962 14.483C5.34604 15.5573 3.6527 16.647 1.9696 17.752C1.3557 18.1562 0.741796 18.5501 0.127896 18.9491C0.0972008 18.9696 0.0665058 19.0105 0.0255792 18.9849C-0.0153475 18.9594 0.00511579 18.9133 0.00511579 18.8775C0.00511579 17.7827 0.00511587 16.6828 3.92594e-08 15.588C3.92594e-08 15.4857 0.0409268 15.4346 0.12278 15.3834C1.29942 14.6365 2.47095 13.8896 3.64759 13.1376C4.63494 12.5083 5.6223 11.8688 6.60965 11.2396C7.61236 10.6001 8.60994 9.96574 9.61265 9.33137C10.3851 8.84025 11.1576 8.35425 11.9301 7.86824C13.117 7.11622 14.3039 6.35396 15.4907 5.60193C16.5804 4.91129 17.6752 4.22066 18.7649 3.53002C20.1717 2.63475 21.5735 1.73948 22.9752 0.844208C23.3896 0.578185 23.804 0.312161 24.2183 0.0410224C24.3002 -0.0101359 24.3565 -0.0152517 24.4383 0.0359066C26.2749 1.20232 28.1166 2.36873 29.9532 3.53514C31.1503 4.29228 32.3423 5.05454 33.5394 5.81168C33.964 6.08282 34.3886 6.34884 34.8132 6.61998C34.8439 6.64044 34.8746 6.68137 34.9156 6.66091C34.9667 6.64044 34.9462 6.58417 34.9462 6.54324C34.9462 5.71959 34.9462 4.89595 34.9462 4.0723C34.9462 3.77046 34.9514 3.46863 34.9462 3.1668C34.9462 3.05936 34.9718 3.01332 35.0895 3.01332C36.7521 3.01332 38.4148 3.01332 40.0774 3.00309C40.2053 3.00309 40.2258 3.04913 40.2258 3.16168C40.2258 4.32297 40.2258 5.4638 40.2258 6.60463Z" fill="#072945"/>
<path d="M18.8927 23.1902C18.8927 18.632 18.8927 14.0738 18.8927 9.51555C18.8927 9.39788 18.9234 9.32115 19.0257 9.25464C19.8289 8.73283 20.627 8.20589 21.4302 7.6892C22.3459 7.09576 23.2667 6.51255 24.1825 5.91912C24.2592 5.86796 24.3206 5.85773 24.4024 5.914C24.6685 6.08282 24.9345 6.25165 25.2005 6.42047C25.7019 6.73254 26.1981 7.03948 26.6995 7.35155C27.2724 7.70966 27.8403 8.07288 28.4133 8.43099C29.2062 8.92723 30.0043 9.42346 30.7972 9.9197C31.1758 10.155 31.5646 10.375 31.9125 10.6513C32.5162 11.1373 32.8231 11.7921 32.8333 12.5646C32.8487 13.7617 32.8385 14.9588 32.8385 16.1559C32.8385 18.6627 32.8231 21.1643 32.8436 23.6711C32.8538 24.8068 32.4497 25.7532 31.6976 26.5666C31.186 27.114 30.5824 27.5284 29.8355 27.7023C29.5029 27.7791 29.1602 27.7893 28.8225 27.7893C26.5562 27.7893 24.2899 27.7893 22.0287 27.7893C21.8343 27.7893 21.8292 27.7944 21.8292 27.9888C21.8292 30.9509 21.8292 33.9181 21.8292 36.8801C21.8292 37.0848 21.8292 37.0848 21.6246 37.0848C20.7702 37.0848 19.921 37.0848 19.0666 37.0899C18.9132 37.0899 18.9029 37.0183 18.9029 36.8955C18.908 33.9539 18.908 31.0174 18.908 28.0758C18.8927 26.4438 18.8927 24.817 18.8927 23.1902ZM21.819 17.8646C21.8138 17.8646 21.8138 17.8646 21.819 17.8646C21.819 20.1002 21.819 22.3358 21.819 24.5714C21.819 24.7658 21.819 24.771 22.0185 24.771C23.2872 24.771 24.5559 24.771 25.8247 24.771C26.7864 24.771 27.7482 24.7812 28.71 24.7607C29.2318 24.7505 29.6359 24.4896 29.8969 24.0292C30.0708 23.7273 30.122 23.3999 30.122 23.0623C30.122 21.1131 30.122 19.164 30.122 17.2149C30.122 15.9717 30.122 14.7235 30.122 13.4803C30.122 13.2296 30.0452 13.0301 29.815 12.892C29.5132 12.7181 29.2216 12.5237 28.9248 12.3395C28.004 11.7614 27.0831 11.1884 26.1623 10.6103C25.5944 10.2573 25.0215 9.90435 24.4536 9.55647C24.3615 9.5002 24.2746 9.44393 24.1518 9.52578C23.8346 9.73041 23.5072 9.9197 23.19 10.1192C22.7858 10.3699 22.3919 10.6308 21.9827 10.8661C21.8445 10.948 21.8036 11.0298 21.8036 11.1833C21.819 13.4138 21.819 15.6392 21.819 17.8646Z" fill="#C8963C"/>
<path d="M14.12 21.0211C14.0739 21.0313 14.0637 21.0722 14.0483 21.1029C13.5879 22.0954 13.1326 23.0828 12.6722 24.0752C12.0583 25.4053 11.4341 26.7303 10.7896 28.0451C10.6719 28.2907 10.5491 28.5362 10.4366 28.7818C10.4007 28.8636 10.3496 28.8943 10.2626 28.8943C10.0989 28.8892 9.93521 28.8841 9.77662 28.8943C9.6743 28.8994 9.62314 28.8688 9.5771 28.7767C9.07063 27.8047 8.55393 26.8378 8.04235 25.8709C7.55123 24.9449 7.06011 24.0189 6.56899 23.093C6.54853 23.0521 6.53829 23.0009 6.49225 22.9804C6.44109 23.0111 6.45644 23.0623 6.45644 23.0981C6.45644 25.6509 6.45644 28.2037 6.45644 30.7565C6.45644 31.1402 6.45644 31.1402 6.08299 31.1351C5.82208 31.13 5.56629 31.13 5.33607 31.2783C5.29515 31.309 5.24399 31.2937 5.19795 31.2937C4.70171 31.263 4.30268 31.4522 3.99573 31.8359C3.98038 31.8564 3.96503 31.8871 3.94457 31.9024C3.87806 31.9485 3.80644 32.0252 3.73482 31.9996C3.67854 31.9792 3.71435 31.8769 3.71435 31.8155C3.71435 27.5079 3.71947 23.2055 3.71435 18.898C3.71435 18.7036 3.77575 18.6013 3.93434 18.5041C4.71706 18.0078 5.48955 17.4963 6.27227 16.9898C6.43598 16.8824 6.44109 16.8824 6.53318 17.0563C7.08569 18.0846 7.64331 19.1129 8.19582 20.1411C8.70229 21.0825 9.20876 22.0187 9.71523 22.96C9.7408 23.006 9.75615 23.0776 9.80731 23.0776C9.87382 23.0776 9.87382 22.9958 9.89428 22.9446C10.4161 21.7015 10.943 20.4583 11.4597 19.2101C11.8076 18.3762 12.1452 17.5372 12.4931 16.6982C13.1224 15.1737 13.7567 13.6492 14.386 12.1195C14.4116 12.0633 14.4423 12.0223 14.4934 11.9916C14.9845 11.6642 15.4705 11.3368 15.9617 11.0094C16.3505 10.7485 16.7444 10.4978 17.1383 10.242C17.169 10.2216 17.1946 10.1755 17.2355 10.196C17.2867 10.2216 17.2611 10.2727 17.2611 10.3136C17.2611 12.1349 17.2611 13.951 17.2611 15.7722C17.2611 20.7602 17.2611 25.7532 17.2662 30.7411C17.2662 32.8131 17.2662 34.8901 17.2713 36.962C17.2713 37.0797 17.2355 37.1206 17.1127 37.1206C16.1765 37.1155 15.2454 37.1155 14.3092 37.1206C14.1762 37.1206 14.1507 37.0694 14.1507 36.9518C14.1507 35.4835 14.1507 34.0102 14.1507 32.5419C14.1507 28.9915 14.1507 25.4463 14.1507 21.8959C14.1507 21.6452 14.1558 21.3996 14.1507 21.149C14.1404 21.0978 14.1609 21.0569 14.12 21.0211Z" fill="#072945"/>
<path d="M38.7782 34.4143C39.5303 34.4143 40.2823 34.4092 41.0343 34.4194C41.1622 34.4194 41.2083 34.3887 41.2083 34.2506C41.2031 33.7083 41.2083 33.1661 41.2083 32.6289C41.2083 32.5368 41.2338 32.4652 41.285 32.3936C41.5459 32.0508 41.7864 31.6927 42.0166 31.3295C42.1649 31.0993 42.2417 30.8537 42.1803 30.5774C42.1291 30.3575 42.0114 30.1835 41.8222 30.0607C41.6431 29.9431 41.4692 29.8101 41.2901 29.6924C41.2236 29.6464 41.2031 29.5901 41.2031 29.5133C41.2083 29.3445 41.198 29.1757 41.2083 29.012C41.2185 28.7511 41.1008 28.5618 40.8911 28.4237C40.3181 28.04 39.7451 27.6563 39.1722 27.2777C38.1797 26.6331 37.1872 25.9937 36.1947 25.3542C35.9287 25.1854 35.6525 25.0319 35.3864 24.8631C34.6344 24.3924 34.261 23.7018 34.261 22.8218C34.2507 20.489 34.2559 18.1562 34.2559 15.8234C34.2559 15.322 34.2507 14.8156 34.2507 14.3142C34.2507 14.0022 34.3224 13.7105 34.4809 13.4343C34.8186 12.8511 35.5604 12.7744 36.0362 13.1069C36.9417 13.7361 37.8676 14.3244 38.7885 14.9281C39.7349 15.5471 40.6813 16.161 41.6278 16.7749C42.1956 17.1484 42.7584 17.527 43.3313 17.8902C43.8838 18.2381 44.1141 18.765 44.1294 19.3789C44.1499 20.2946 44.1345 21.2104 44.1396 22.121C44.1396 22.2386 44.0834 22.254 43.9862 22.254C43.1165 22.254 42.2417 22.254 41.372 22.2591C41.2543 22.2591 41.2185 22.2182 41.2185 22.1005C41.2236 21.4968 41.2185 20.8932 41.2236 20.2895C41.2236 20.1667 41.1929 20.0951 41.0855 20.0235C39.914 19.2612 38.7475 18.4887 37.5811 17.7214C37.4993 17.6651 37.4072 17.619 37.3253 17.5628C37.2333 17.5014 37.223 17.5423 37.223 17.6242C37.223 18.7803 37.2281 19.9314 37.2281 21.0876C37.2281 21.3945 37.2281 21.7015 37.2281 22.0084C37.2281 22.167 37.2793 22.2898 37.4174 22.387C38.3997 23.0521 39.3819 23.7222 40.3642 24.3873C41.2543 24.991 42.1496 25.5895 43.05 26.1829C43.802 26.6741 44.1089 27.3852 44.1089 28.2549C44.1089 29.8203 44.1089 31.3857 44.1089 32.9512C44.1089 33.9334 44.1141 34.9157 44.1141 35.8979C44.1141 36.1742 44.0782 36.4453 43.981 36.7011C43.6946 37.4531 43.0551 37.8573 42.2468 37.7856C41.4129 37.7089 40.579 37.6066 39.7503 37.5145C39.1722 37.4531 38.589 37.3866 38.0109 37.3252C37.3612 37.2587 36.7166 37.1922 36.0669 37.1308C35.9697 37.1206 35.9338 37.0848 35.9338 36.9876C35.9338 36.3634 35.9338 35.7444 35.9338 35.1203C35.9338 35.064 35.9543 35.018 35.985 34.9771C36.0975 34.8338 36.2152 34.6957 36.3124 34.5422C36.3738 34.4501 36.4352 34.4194 36.5477 34.4194C37.2844 34.4194 38.0313 34.4143 38.7782 34.4143Z" fill="#072945"/>
<path d="M4.20029 31.9638C4.45608 31.6211 5.08533 31.3499 5.57133 31.6466C5.96525 31.8922 6.21081 32.2605 6.42567 32.6545C6.73774 33.2223 6.92702 33.8311 7.05492 34.4655C7.06515 34.532 7.08562 34.5985 7.16235 34.5882C7.24421 34.578 7.23909 34.5013 7.22886 34.4348C7.0498 33.56 6.77867 32.721 6.21081 32.0099C6.03687 31.795 5.83224 31.6159 5.57645 31.5085C5.55598 31.4983 5.52529 31.4932 5.5304 31.4625C5.53552 31.442 5.5611 31.4267 5.58156 31.4164C5.60714 31.4062 5.63784 31.396 5.66341 31.396C6.04199 31.3653 6.42056 31.3908 6.7889 31.4983C7.15724 31.6057 7.39768 31.8717 7.5972 32.1736C8.0832 32.8949 8.35434 33.7032 8.51805 34.5524C8.58455 34.885 8.64083 35.2226 8.67152 35.5602C8.67664 35.6421 8.71245 35.7086 8.79942 35.7035C8.87104 35.6984 8.88639 35.6319 8.88127 35.5602C8.77895 34.5627 8.55386 33.5958 8.11901 32.6903C8.00135 32.4396 7.85299 32.2043 7.68417 31.9843C7.65859 31.9536 7.63301 31.9178 7.61255 31.882C7.64836 31.8308 7.67905 31.8666 7.70463 31.8769C8.24691 32.0661 8.66129 32.4294 9.02963 32.854C9.66911 33.5855 9.93513 34.4706 10.0477 35.417C10.0579 35.4937 10.0733 35.55 10.1398 35.6012C10.3342 35.7495 10.3444 35.8877 10.1858 36.0667C10.1295 36.1281 10.1091 36.1997 10.1653 36.256C10.237 36.3327 10.3188 36.2509 10.3444 36.2048C10.4314 36.0411 10.5235 36.1128 10.6155 36.1793C10.6974 36.2355 10.7792 36.2969 10.8509 36.3686C11.076 36.5936 11.0657 36.8801 10.8151 37.0745C10.6411 37.2127 10.4518 37.3201 10.2421 37.4019C9.65888 37.627 9.05009 37.7549 8.43108 37.8368C7.44884 37.9698 6.4666 37.9903 5.47924 37.8982C4.60955 37.8163 3.76032 37.6219 2.92133 37.3764C2.56322 37.2741 2.21023 37.1462 1.8777 36.9773C1.74469 36.9108 1.61168 36.8392 1.55029 36.6908C1.4582 36.4709 1.55029 36.2509 1.79585 36.0974C1.88793 36.0411 1.98513 36.0053 2.07722 35.9593C2.13349 35.9286 2.17953 35.9593 2.22046 35.9849C2.84971 36.3941 3.57104 36.563 4.28726 36.742C4.36399 36.7625 4.44585 36.7625 4.46631 36.655C4.48677 36.5425 4.38957 36.5374 4.31795 36.522C3.67336 36.3839 3.04922 36.1946 2.46602 35.8825C2.32278 35.8058 2.26139 35.7086 2.2665 35.5398C2.2972 34.5524 2.52741 33.6367 3.15666 32.8489C3.34594 32.6084 3.57615 32.4191 3.84729 32.2759C4.36911 31.9945 4.69652 32.0661 5.12114 32.4908C5.48948 32.8642 5.68899 33.3349 5.86293 33.8209C6.08803 34.4501 6.19034 35.1101 6.26708 35.77C6.2722 35.7956 6.26708 35.816 6.2722 35.8416C6.27731 35.9132 6.31312 35.9695 6.38475 35.9644C6.4666 35.9593 6.48706 35.8877 6.48195 35.816C6.45637 35.5909 6.4359 35.371 6.40009 35.1459C6.28755 34.4092 6.09826 33.693 5.75038 33.0279C5.58156 32.7005 5.3667 32.4089 5.08021 32.1787C4.82442 31.9843 4.55328 31.8666 4.20029 31.9638ZM6.44614 36.962C7.24421 36.9722 8.05762 36.9262 8.85569 36.7727C9.22915 36.7011 9.59237 36.5988 9.93002 36.4299C10.0016 36.3941 10.0323 36.343 10.0016 36.2662C9.96583 36.1741 9.89932 36.2253 9.84305 36.2407C9.6333 36.3072 9.42867 36.3941 9.21892 36.4504C8.34411 36.6755 7.44372 36.7369 6.54334 36.7522C6.10849 36.7574 5.67365 36.7318 5.2388 36.6704C5.17741 36.6602 5.1109 36.655 5.08021 36.7318C5.05975 36.7829 5.05975 36.8341 5.10579 36.8597C5.14671 36.8801 5.19787 36.8904 5.24392 36.8955C5.64295 36.9364 6.03687 36.9415 6.44614 36.962ZM4.74256 36.8085C4.8193 36.8136 4.87046 36.788 4.87558 36.7215C4.88581 36.6295 4.80395 36.6141 4.74256 36.6039C4.68117 36.5936 4.6249 36.6295 4.61978 36.6908C4.60955 36.7829 4.68629 36.7932 4.74256 36.8085Z" fill="#072945"/>
<path d="M34.6244 28.7153C34.2356 28.7102 33.8366 28.8381 33.4427 28.9966C33.3864 29.0171 33.325 29.0632 33.2739 29.0018C33.2176 28.9301 33.2892 28.8892 33.3199 28.8432C34.2663 27.4721 36.0262 27.1601 37.4382 27.7177C38.0521 27.9581 38.579 28.3418 39.1059 28.7204C39.1315 28.7357 39.152 28.7562 39.1775 28.7664C39.3105 28.8329 39.3719 28.9199 39.3259 29.0836C39.2747 29.2882 39.3566 29.4673 39.4845 29.631C39.6482 29.8356 39.8579 29.9738 40.0984 30.0607C40.2826 30.1272 40.4565 30.0966 40.6253 30.0096C40.6918 29.9738 40.743 29.9635 40.8095 30.0147C41.0602 30.204 41.316 30.3933 41.5666 30.5826C41.6792 30.6695 41.6945 30.8179 41.5922 30.9714C41.3569 31.3244 41.1164 31.6773 40.876 32.0303C40.7532 32.2094 40.6253 32.3782 40.4974 32.5521C40.3951 32.6954 40.2979 32.7159 40.1598 32.6135C39.8989 32.4294 39.638 32.2401 39.3771 32.0559C39.3259 32.0201 39.2799 31.9843 39.285 31.9076C39.3003 31.442 39.0394 31.0941 38.5943 30.9611C38.2413 30.8588 37.8679 30.9969 37.6019 31.3448C37.4944 31.4829 37.3972 31.6211 37.3 31.7643C37.2591 31.8206 37.2233 31.8359 37.1619 31.7899C36.6964 31.4522 36.2462 31.0941 35.796 30.7411C35.7346 30.6951 35.7448 30.6491 35.7857 30.5928C35.8676 30.47 35.9546 30.3472 36.0159 30.2142C36.2564 29.6822 36.0569 29.1399 35.5299 28.8943C35.2435 28.7613 34.9621 28.7102 34.6244 28.7153Z" fill="#072945"/>
<path d="M30.5726 37.5657C30.5675 37.402 30.6237 37.2638 30.7261 37.1308C31.6316 35.9593 32.5729 34.8236 33.5347 33.6981C34.2099 32.9051 34.8903 32.1122 35.5656 31.3141C35.6577 31.2067 35.7191 31.2118 35.8214 31.2885C36.1335 31.5239 36.4558 31.7541 36.7679 31.9843C36.9264 32.102 36.9264 32.1071 36.8139 32.2759C36.3586 32.9665 35.8982 33.652 35.4429 34.3478C35.0438 34.9515 34.6704 35.5705 34.2458 36.1537C33.8416 36.7164 33.4323 37.2792 33.0282 37.8419C32.8849 38.0414 32.7417 38.2358 32.6036 38.4354C32.3887 38.7474 32.0408 38.8804 31.7083 38.773C31.5446 38.7218 31.4423 38.5888 31.3144 38.4916C31.1507 38.3637 31.0023 38.2205 30.8335 38.1028C30.6391 37.9749 30.5777 37.7856 30.5726 37.5657Z" fill="#072945"/>
<path d="M25.7378 16.7647C25.7378 17.0921 25.7378 17.4144 25.7378 17.7418C25.7378 17.8441 25.702 17.8748 25.5997 17.8697C24.996 17.8646 24.3924 17.8646 23.7938 17.8697C23.671 17.8697 23.625 17.8339 23.6199 17.706C23.6147 17.4656 23.625 17.2302 23.625 16.9898C23.625 16.5908 23.6199 16.1968 23.6147 15.7978C23.6147 15.7108 23.625 15.6494 23.7324 15.6494C24.3565 15.6546 24.9858 15.6546 25.6099 15.6546C25.7122 15.6546 25.7276 15.7006 25.7276 15.7876C25.7225 16.115 25.7276 16.4373 25.7276 16.7647C25.7327 16.7647 25.7327 16.7647 25.7378 16.7647Z" fill="#C8963C"/>
<path d="M26.301 16.7596C26.301 16.4271 26.301 16.0894 26.301 15.7569C26.301 15.6853 26.3214 15.6546 26.3982 15.6546C27.0274 15.6546 27.6618 15.6546 28.291 15.6546C28.3678 15.6546 28.3933 15.6801 28.3933 15.7569C28.3933 16.4271 28.3985 17.0972 28.4036 17.7674C28.4036 17.8441 28.3678 17.88 28.291 17.88C27.6669 17.88 27.0376 17.88 26.4135 17.8851C26.301 17.8851 26.3061 17.8237 26.3061 17.7469C26.2959 17.4093 26.2959 17.087 26.301 16.7596Z" fill="#C8963C"/>
<path d="M25.7431 19.563C25.7635 19.8956 25.7124 20.223 25.7431 20.5555C25.7482 20.6323 25.7226 20.6629 25.6408 20.6629C25.0269 20.6578 24.413 20.6578 23.8042 20.6629C23.6814 20.6629 23.6251 20.6374 23.6251 20.4941C23.6302 19.8495 23.6251 19.1998 23.6251 18.5552C23.6251 18.4785 23.6507 18.458 23.7223 18.458C24.3516 18.458 24.9859 18.4529 25.6152 18.4478C25.7073 18.4478 25.7431 18.4734 25.738 18.5706C25.7226 18.9031 25.7328 19.2356 25.7431 19.563Z" fill="#C8963C"/>
<path d="M28.3931 19.5426C28.3931 19.87 28.3931 20.1923 28.3931 20.5197C28.3931 20.622 28.3624 20.663 28.255 20.663C27.6565 20.6579 27.0579 20.6579 26.4593 20.6681C26.3315 20.6681 26.2905 20.6272 26.2905 20.5044C26.2956 19.9161 26.2956 19.3277 26.2956 18.7394C26.2956 18.4632 26.2956 18.4632 26.5668 18.4632C27.1142 18.4581 27.6667 18.458 28.2141 18.4478C28.3522 18.4427 28.3931 18.4939 28.388 18.6269C28.388 18.9338 28.3931 19.2408 28.3931 19.5426Z" fill="#C8963C"/>
<path d="M1.15234 57.8906L2.99805 61.46L4.84863 57.8906H5.91797L3.4668 62.3438V65H2.52441V62.3438L0.0732422 57.8906H1.15234ZM5.94258 62.417V62.3047C5.94258 61.9238 5.99792 61.5706 6.10859 61.2451C6.21927 60.9163 6.37878 60.6315 6.58711 60.3906C6.79544 60.1465 7.04772 59.9577 7.34395 59.8242C7.64017 59.6875 7.9722 59.6191 8.34004 59.6191C8.71113 59.6191 9.04479 59.6875 9.34102 59.8242C9.64049 59.9577 9.8944 60.1465 10.1027 60.3906C10.3143 60.6315 10.4755 60.9163 10.5861 61.2451C10.6968 61.5706 10.7521 61.9238 10.7521 62.3047V62.417C10.7521 62.7979 10.6968 63.151 10.5861 63.4766C10.4755 63.8021 10.3143 64.0869 10.1027 64.3311C9.8944 64.5719 9.64212 64.7607 9.3459 64.8975C9.05293 65.0309 8.7209 65.0977 8.3498 65.0977C7.97871 65.0977 7.64505 65.0309 7.34883 64.8975C7.0526 64.7607 6.7987 64.5719 6.58711 64.3311C6.37878 64.0869 6.21927 63.8021 6.10859 63.4766C5.99792 63.151 5.94258 62.7979 5.94258 62.417ZM6.8459 62.3047V62.417C6.8459 62.6807 6.87682 62.9297 6.93867 63.1641C7.00052 63.3952 7.09329 63.6003 7.21699 63.7793C7.34395 63.9583 7.50182 64.0999 7.69063 64.2041C7.87943 64.305 8.09915 64.3555 8.3498 64.3555C8.5972 64.3555 8.81367 64.305 8.99922 64.2041C9.18802 64.0999 9.34427 63.9583 9.46797 63.7793C9.59167 63.6003 9.68444 63.3952 9.74629 63.1641C9.81139 62.9297 9.84395 62.6807 9.84395 62.417V62.3047C9.84395 62.0443 9.81139 61.7985 9.74629 61.5674C9.68444 61.333 9.59004 61.1263 9.46309 60.9473C9.33939 60.765 9.18314 60.6217 8.99434 60.5176C8.80879 60.4134 8.59069 60.3613 8.34004 60.3613C8.09264 60.3613 7.87454 60.4134 7.68574 60.5176C7.5002 60.6217 7.34395 60.765 7.21699 60.9473C7.09329 61.1263 7.00052 61.333 6.93867 61.5674C6.87682 61.7985 6.8459 62.0443 6.8459 62.3047ZM14.9174 63.7793V59.7168H15.8256V65H14.9613L14.9174 63.7793ZM15.0883 62.666L15.4643 62.6562C15.4643 63.0078 15.4268 63.3333 15.352 63.6328C15.2803 63.929 15.1632 64.1862 15.0004 64.4043C14.8376 64.6224 14.6244 64.7933 14.3607 64.917C14.0971 65.0374 13.7764 65.0977 13.3988 65.0977C13.1417 65.0977 12.9057 65.0602 12.6908 64.9854C12.4792 64.9105 12.2969 64.7949 12.1439 64.6387C11.991 64.4824 11.8721 64.279 11.7875 64.0283C11.7061 63.7777 11.6654 63.4766 11.6654 63.125V59.7168H12.5688V63.1348C12.5688 63.3724 12.5948 63.5693 12.6469 63.7256C12.7022 63.8786 12.7755 64.0007 12.8666 64.0918C12.961 64.1797 13.0652 64.2415 13.1791 64.2773C13.2963 64.3132 13.4167 64.3311 13.5404 64.3311C13.9245 64.3311 14.2289 64.2578 14.4535 64.1113C14.6781 63.9616 14.8393 63.7614 14.9369 63.5107C15.0378 63.2568 15.0883 62.9753 15.0883 62.666ZM17.9059 60.5469V65H17.0025V59.7168H17.8814L17.9059 60.5469ZM19.5562 59.6875L19.5514 60.5273C19.4765 60.5111 19.4049 60.5013 19.3365 60.498C19.2714 60.4915 19.1965 60.4883 19.1119 60.4883C18.9036 60.4883 18.7197 60.5208 18.5602 60.5859C18.4007 60.651 18.2656 60.7422 18.1549 60.8594C18.0442 60.9766 17.9563 61.1165 17.8912 61.2793C17.8294 61.4388 17.7887 61.6146 17.7691 61.8066L17.5152 61.9531C17.5152 61.6341 17.5462 61.3346 17.608 61.0547C17.6731 60.7747 17.7724 60.5273 17.9059 60.3125C18.0393 60.0944 18.2086 59.9251 18.4137 59.8047C18.622 59.681 18.8694 59.6191 19.1559 59.6191C19.221 59.6191 19.2958 59.6273 19.3805 59.6436C19.4651 59.6566 19.5237 59.6712 19.5562 59.6875ZM24.9033 63.9209L26.998 57.8906H28.0186L25.3867 65H24.6592L24.9033 63.9209ZM22.9453 57.8906L25.0205 63.9209L25.2793 65H24.5518L21.9248 57.8906H22.9453ZM29.6203 59.7168V65H28.7121V59.7168H29.6203ZM28.6437 58.3154C28.6437 58.1689 28.6877 58.0452 28.7756 57.9443C28.8667 57.8434 29.0002 57.793 29.176 57.793C29.3485 57.793 29.4803 57.8434 29.5715 57.9443C29.6659 58.0452 29.7131 58.1689 29.7131 58.3154C29.7131 58.4554 29.6659 58.5758 29.5715 58.6768C29.4803 58.7744 29.3485 58.8232 29.176 58.8232C29.0002 58.8232 28.8667 58.7744 28.7756 58.6768C28.6877 58.5758 28.6437 58.4554 28.6437 58.3154ZM33.9467 63.5986C33.9467 63.4684 33.9174 63.348 33.8588 63.2373C33.8035 63.1234 33.6879 63.0208 33.5121 62.9297C33.3396 62.8353 33.0792 62.7539 32.7309 62.6855C32.4379 62.6237 32.1726 62.5505 31.935 62.4658C31.7006 62.3812 31.5004 62.2786 31.3344 62.1582C31.1716 62.0378 31.0463 61.8962 30.9584 61.7334C30.8705 61.5706 30.8266 61.3802 30.8266 61.1621C30.8266 60.9538 30.8721 60.7568 30.9633 60.5713C31.0577 60.3857 31.1895 60.2214 31.3588 60.0781C31.5313 59.9349 31.738 59.8226 31.9789 59.7412C32.2198 59.6598 32.4883 59.6191 32.7846 59.6191C33.2077 59.6191 33.5691 59.694 33.8686 59.8438C34.168 59.9935 34.3975 60.1937 34.557 60.4443C34.7165 60.6917 34.7963 60.9668 34.7963 61.2695H33.893C33.893 61.123 33.849 60.9814 33.7611 60.8447C33.6765 60.7048 33.5512 60.5892 33.3852 60.498C33.2224 60.4069 33.0222 60.3613 32.7846 60.3613C32.5339 60.3613 32.3305 60.4004 32.1742 60.4785C32.0212 60.5534 31.9089 60.6494 31.8373 60.7666C31.7689 60.8838 31.7348 61.0075 31.7348 61.1377C31.7348 61.2354 31.751 61.3232 31.7836 61.4014C31.8194 61.4762 31.8813 61.5462 31.9691 61.6113C32.057 61.6732 32.1807 61.7318 32.3402 61.7871C32.4997 61.8424 32.7032 61.8978 32.9506 61.9531C33.3835 62.0508 33.74 62.168 34.0199 62.3047C34.2999 62.4414 34.5082 62.609 34.6449 62.8076C34.7816 63.0062 34.85 63.2471 34.85 63.5303C34.85 63.7614 34.8012 63.973 34.7035 64.165C34.6091 64.3571 34.4708 64.5231 34.2885 64.6631C34.1094 64.7998 33.8946 64.9072 33.6439 64.9854C33.3965 65.0602 33.1182 65.0977 32.809 65.0977C32.3435 65.0977 31.9496 65.0146 31.6273 64.8486C31.3051 64.6826 31.0609 64.4678 30.8949 64.2041C30.7289 63.9404 30.6459 63.6621 30.6459 63.3691H31.5541C31.5671 63.6165 31.6387 63.8135 31.7689 63.96C31.8992 64.1032 32.0587 64.2057 32.2475 64.2676C32.4363 64.3262 32.6234 64.3555 32.809 64.3555C33.0564 64.3555 33.2631 64.3229 33.4291 64.2578C33.5984 64.1927 33.727 64.1032 33.8148 63.9893C33.9027 63.8753 33.9467 63.7451 33.9467 63.5986ZM36.818 59.7168V65H35.9098V59.7168H36.818ZM35.8414 58.3154C35.8414 58.1689 35.8854 58.0452 35.9732 57.9443C36.0644 57.8434 36.1979 57.793 36.3736 57.793C36.5462 57.793 36.678 57.8434 36.7691 57.9443C36.8635 58.0452 36.9107 58.1689 36.9107 58.3154C36.9107 58.4554 36.8635 58.5758 36.7691 58.6768C36.678 58.7744 36.5462 58.8232 36.3736 58.8232C36.1979 58.8232 36.0644 58.7744 35.9732 58.6768C35.8854 58.5758 35.8414 58.4554 35.8414 58.3154ZM37.8289 62.417V62.3047C37.8289 61.9238 37.8842 61.5706 37.9949 61.2451C38.1056 60.9163 38.2651 60.6315 38.4734 60.3906C38.6818 60.1465 38.9341 59.9577 39.2303 59.8242C39.5265 59.6875 39.8585 59.6191 40.2264 59.6191C40.5975 59.6191 40.9311 59.6875 41.2273 59.8242C41.5268 59.9577 41.7807 60.1465 41.9891 60.3906C42.2007 60.6315 42.3618 60.9163 42.4725 61.2451C42.5831 61.5706 42.6385 61.9238 42.6385 62.3047V62.417C42.6385 62.7979 42.5831 63.151 42.4725 63.4766C42.3618 63.8021 42.2007 64.0869 41.9891 64.3311C41.7807 64.5719 41.5285 64.7607 41.2322 64.8975C40.9393 65.0309 40.6072 65.0977 40.2361 65.0977C39.865 65.0977 39.5314 65.0309 39.2352 64.8975C38.9389 64.7607 38.685 64.5719 38.4734 64.3311C38.2651 64.0869 38.1056 63.8021 37.9949 63.4766C37.8842 63.151 37.8289 62.7979 37.8289 62.417ZM38.7322 62.3047V62.417C38.7322 62.6807 38.7632 62.9297 38.825 63.1641C38.8868 63.3952 38.9796 63.6003 39.1033 63.7793C39.2303 63.9583 39.3882 64.0999 39.577 64.2041C39.7658 64.305 39.9855 64.3555 40.2361 64.3555C40.4835 64.3555 40.7 64.305 40.8855 64.2041C41.0743 64.0999 41.2306 63.9583 41.3543 63.7793C41.478 63.6003 41.5708 63.3952 41.6326 63.1641C41.6977 62.9297 41.7303 62.6807 41.7303 62.417V62.3047C41.7303 62.0443 41.6977 61.7985 41.6326 61.5674C41.5708 61.333 41.4764 61.1263 41.3494 60.9473C41.2257 60.765 41.0695 60.6217 40.8807 60.5176C40.6951 60.4134 40.477 60.3613 40.2264 60.3613C39.979 60.3613 39.7609 60.4134 39.5721 60.5176C39.3865 60.6217 39.2303 60.765 39.1033 60.9473C38.9796 61.1263 38.8868 61.333 38.825 61.5674C38.7632 61.7985 38.7322 62.0443 38.7322 62.3047ZM44.4746 60.8447V65H43.5713V59.7168H44.4258L44.4746 60.8447ZM44.2598 62.1582L43.8838 62.1436C43.887 61.7822 43.9408 61.4486 44.0449 61.1426C44.1491 60.8333 44.2956 60.5648 44.4844 60.3369C44.6732 60.109 44.8978 59.9333 45.1582 59.8096C45.4219 59.6826 45.7132 59.6191 46.0322 59.6191C46.2926 59.6191 46.527 59.6549 46.7354 59.7266C46.9437 59.7949 47.1211 59.9056 47.2676 60.0586C47.4173 60.2116 47.5312 60.4102 47.6094 60.6543C47.6875 60.8952 47.7266 61.1898 47.7266 61.5381V65H46.8184V61.5283C46.8184 61.2516 46.7777 61.0303 46.6963 60.8643C46.6149 60.695 46.4961 60.5729 46.3398 60.498C46.1836 60.4199 45.9915 60.3809 45.7637 60.3809C45.5391 60.3809 45.334 60.4281 45.1484 60.5225C44.9661 60.6169 44.8083 60.7471 44.6748 60.9131C44.5446 61.0791 44.4421 61.2695 44.3672 61.4844C44.2956 61.696 44.2598 61.9206 44.2598 62.1582ZM48.9133 64.5215C48.9133 64.3685 48.9605 64.2399 49.0549 64.1357C49.1525 64.0283 49.2925 63.9746 49.4748 63.9746C49.6571 63.9746 49.7954 64.0283 49.8898 64.1357C49.9875 64.2399 50.0363 64.3685 50.0363 64.5215C50.0363 64.6712 49.9875 64.7982 49.8898 64.9023C49.7954 65.0065 49.6571 65.0586 49.4748 65.0586C49.2925 65.0586 49.1525 65.0065 49.0549 64.9023C48.9605 64.7982 48.9133 64.6712 48.9133 64.5215ZM59.2262 61.2207V61.6699C59.2262 62.2038 59.1594 62.6823 59.026 63.1055C58.8925 63.5286 58.7005 63.8883 58.4498 64.1846C58.1992 64.4808 57.898 64.707 57.5465 64.8633C57.1982 65.0195 56.8076 65.0977 56.3746 65.0977C55.9547 65.0977 55.5689 65.0195 55.2174 64.8633C54.8691 64.707 54.5663 64.4808 54.3092 64.1846C54.0553 63.8883 53.8583 63.5286 53.7184 63.1055C53.5784 62.6823 53.5084 62.2038 53.5084 61.6699V61.2207C53.5084 60.6868 53.5768 60.21 53.7135 59.79C53.8535 59.3669 54.0504 59.0072 54.3043 58.7109C54.5582 58.4115 54.8593 58.1836 55.2076 58.0273C55.5592 57.8711 55.9449 57.793 56.3648 57.793C56.7978 57.793 57.1884 57.8711 57.5367 58.0273C57.8883 58.1836 58.1894 58.4115 58.44 58.7109C58.6939 59.0072 58.8876 59.3669 59.0211 59.79C59.1578 60.21 59.2262 60.6868 59.2262 61.2207ZM58.2936 61.6699V61.2109C58.2936 60.7878 58.2496 60.4134 58.1617 60.0879C58.0771 59.7624 57.9518 59.4889 57.7857 59.2676C57.6197 59.0462 57.4163 58.8786 57.1754 58.7646C56.9378 58.6507 56.6676 58.5938 56.3648 58.5938C56.0719 58.5938 55.8066 58.6507 55.5689 58.7646C55.3346 58.8786 55.1327 59.0462 54.9635 59.2676C54.7975 59.4889 54.6689 59.7624 54.5777 60.0879C54.4866 60.4134 54.441 60.7878 54.441 61.2109V61.6699C54.441 62.0964 54.4866 62.474 54.5777 62.8027C54.6689 63.1283 54.7991 63.4033 54.9684 63.6279C55.1409 63.8493 55.3443 64.0169 55.5787 64.1309C55.8163 64.2448 56.0816 64.3018 56.3746 64.3018C56.6806 64.3018 56.9524 64.2448 57.19 64.1309C57.4277 64.0169 57.6279 63.8493 57.7906 63.6279C57.9566 63.4033 58.082 63.1283 58.1666 62.8027C58.2512 62.474 58.2936 62.0964 58.2936 61.6699ZM63.533 63.7793V59.7168H64.4412V65H63.577L63.533 63.7793ZM63.7039 62.666L64.0799 62.6562C64.0799 63.0078 64.0424 63.3333 63.9676 63.6328C63.896 63.929 63.7788 64.1862 63.616 64.4043C63.4533 64.6224 63.24 64.7933 62.9764 64.917C62.7127 65.0374 62.3921 65.0977 62.0145 65.0977C61.7573 65.0977 61.5213 65.0602 61.3064 64.9854C61.0949 64.9105 60.9126 64.7949 60.7596 64.6387C60.6066 64.4824 60.4878 64.279 60.4031 64.0283C60.3217 63.7777 60.2811 63.4766 60.2811 63.125V59.7168H61.1844V63.1348C61.1844 63.3724 61.2104 63.5693 61.2625 63.7256C61.3178 63.8786 61.3911 64.0007 61.4822 64.0918C61.5766 64.1797 61.6808 64.2415 61.7947 64.2773C61.9119 64.3132 62.0324 64.3311 62.1561 64.3311C62.5402 64.3311 62.8445 64.2578 63.0691 64.1113C63.2938 63.9616 63.4549 63.7614 63.5525 63.5107C63.6535 63.2568 63.7039 62.9753 63.7039 62.666ZM66.5215 60.5469V65H65.6182V59.7168H66.4971L66.5215 60.5469ZM68.1719 59.6875L68.167 60.5273C68.0921 60.5111 68.0205 60.5013 67.9521 60.498C67.887 60.4915 67.8122 60.4883 67.7275 60.4883C67.5192 60.4883 67.3353 60.5208 67.1758 60.5859C67.0163 60.651 66.8812 60.7422 66.7705 60.8594C66.6598 60.9766 66.5719 61.1165 66.5068 61.2793C66.445 61.4388 66.4043 61.6146 66.3848 61.8066L66.1309 61.9531C66.1309 61.6341 66.1618 61.3346 66.2236 61.0547C66.2887 60.7747 66.388 60.5273 66.5215 60.3125C66.6549 60.0944 66.8242 59.9251 67.0293 59.8047C67.2376 59.681 67.485 59.6191 67.7715 59.6191C67.8366 59.6191 67.9115 59.6273 67.9961 59.6436C68.0807 59.6566 68.1393 59.6712 68.1719 59.6875ZM75.7406 64.2334V65H71.976V64.2334H75.7406ZM72.1664 57.8906V65H71.224V57.8906H72.1664ZM75.2426 60.9473V61.7139H71.976V60.9473H75.2426ZM75.6918 57.8906V58.6621H71.976V57.8906H75.6918ZM77.1813 59.7168L78.3385 61.6406L79.5104 59.7168H80.5699L78.8414 62.3242L80.6236 65H79.5787L78.358 63.0176L77.1373 65H76.0875L77.8648 62.3242L76.1412 59.7168H77.1813ZM82.2352 60.7324V67.0312H81.327V59.7168H82.157L82.2352 60.7324ZM85.7947 62.3145V62.417C85.7947 62.8011 85.7492 63.1576 85.658 63.4863C85.5669 63.8118 85.4334 64.0951 85.2576 64.3359C85.0851 64.5768 84.8719 64.764 84.618 64.8975C84.3641 65.0309 84.0727 65.0977 83.7439 65.0977C83.4087 65.0977 83.1124 65.0423 82.8553 64.9316C82.5981 64.821 82.38 64.6598 82.201 64.4482C82.0219 64.2367 81.8787 63.9827 81.7713 63.6865C81.6671 63.3903 81.5955 63.0566 81.5564 62.6855V62.1387C81.5955 61.748 81.6687 61.3981 81.7762 61.0889C81.8836 60.7796 82.0252 60.516 82.201 60.2979C82.38 60.0765 82.5965 59.9089 82.8504 59.7949C83.1043 59.6777 83.3973 59.6191 83.7293 59.6191C84.0613 59.6191 84.3559 59.6842 84.6131 59.8145C84.8702 59.9414 85.0867 60.1237 85.2625 60.3613C85.4383 60.599 85.5701 60.8838 85.658 61.2158C85.7492 61.5446 85.7947 61.9108 85.7947 62.3145ZM84.8865 62.417V62.3145C84.8865 62.0508 84.8589 61.8034 84.8035 61.5723C84.7482 61.3379 84.6619 61.1328 84.5447 60.957C84.4308 60.778 84.2843 60.638 84.1053 60.5371C83.9262 60.4329 83.713 60.3809 83.4656 60.3809C83.2378 60.3809 83.0392 60.4199 82.8699 60.498C82.7039 60.5762 82.5623 60.682 82.4451 60.8154C82.3279 60.9456 82.2319 61.0954 82.157 61.2646C82.0854 61.4307 82.0317 61.6032 81.9959 61.7822V63.0469C82.061 63.2747 82.1521 63.4896 82.2693 63.6914C82.3865 63.89 82.5428 64.0511 82.7381 64.1748C82.9334 64.2952 83.1792 64.3555 83.4754 64.3555C83.7195 64.3555 83.9295 64.305 84.1053 64.2041C84.2843 64.0999 84.4308 63.9583 84.5447 63.7793C84.6619 63.6003 84.7482 63.3952 84.8035 63.1641C84.8589 62.9297 84.8865 62.6807 84.8865 62.417ZM88.9395 65.0977C88.5716 65.0977 88.238 65.0358 87.9385 64.9121C87.6423 64.7852 87.3867 64.6077 87.1719 64.3799C86.9603 64.152 86.7975 63.8818 86.6836 63.5693C86.5697 63.2568 86.5127 62.915 86.5127 62.5439V62.3389C86.5127 61.9092 86.5762 61.5267 86.7031 61.1914C86.8301 60.8529 87.0026 60.5664 87.2207 60.332C87.4388 60.0977 87.6862 59.9202 87.9629 59.7998C88.2396 59.6794 88.526 59.6191 88.8223 59.6191C89.1999 59.6191 89.5254 59.6842 89.7988 59.8145C90.0755 59.9447 90.3018 60.127 90.4775 60.3613C90.6533 60.5924 90.7835 60.8659 90.8682 61.1816C90.9528 61.4941 90.9951 61.8359 90.9951 62.207V62.6123H87.0498V61.875H90.0918V61.8066C90.0788 61.5723 90.0299 61.3444 89.9453 61.123C89.8639 60.9017 89.7337 60.7194 89.5547 60.5762C89.3757 60.4329 89.1315 60.3613 88.8223 60.3613C88.6172 60.3613 88.4284 60.4053 88.2559 60.4932C88.0833 60.5778 87.9352 60.7048 87.8115 60.874C87.6878 61.0433 87.5918 61.25 87.5234 61.4941C87.4551 61.7383 87.4209 62.0199 87.4209 62.3389V62.5439C87.4209 62.7946 87.4551 63.0306 87.5234 63.252C87.5951 63.4701 87.6976 63.6621 87.8311 63.8281C87.9678 63.9941 88.1322 64.1243 88.3242 64.2188C88.5195 64.3132 88.7409 64.3604 88.9883 64.3604C89.3073 64.3604 89.5775 64.2952 89.7988 64.165C90.0202 64.0348 90.2139 63.8607 90.3799 63.6426L90.9268 64.0771C90.8128 64.2497 90.668 64.4141 90.4922 64.5703C90.3164 64.7266 90.0999 64.8535 89.8428 64.9512C89.5889 65.0488 89.2878 65.0977 88.9395 65.0977ZM92.7531 60.5469V65H91.8498V59.7168H92.7287L92.7531 60.5469ZM94.4035 59.6875L94.3986 60.5273C94.3238 60.5111 94.2522 60.5013 94.1838 60.498C94.1187 60.4915 94.0438 60.4883 93.9592 60.4883C93.7508 60.4883 93.5669 60.5208 93.4074 60.5859C93.2479 60.651 93.1128 60.7422 93.0022 60.8594C92.8915 60.9766 92.8036 61.1165 92.7385 61.2793C92.6766 61.4388 92.6359 61.6146 92.6164 61.8066L92.3625 61.9531C92.3625 61.6341 92.3934 61.3346 92.4553 61.0547C92.5204 60.7747 92.6197 60.5273 92.7531 60.3125C92.8866 60.0944 93.0559 59.9251 93.2609 59.8047C93.4693 59.681 93.7167 59.6191 94.0031 59.6191C94.0682 59.6191 94.1431 59.6273 94.2277 59.6436C94.3124 59.6566 94.371 59.6712 94.4035 59.6875ZM97.4945 59.7168V60.4102H94.6381V59.7168H97.4945ZM95.6049 58.4326H96.5082V63.6914C96.5082 63.8704 96.5359 64.0055 96.5912 64.0967C96.6465 64.1878 96.7182 64.248 96.8061 64.2773C96.8939 64.3066 96.9883 64.3213 97.0893 64.3213C97.1641 64.3213 97.2423 64.3148 97.3236 64.3018C97.4083 64.2855 97.4717 64.2725 97.5141 64.2627L97.5189 65C97.4473 65.0228 97.3529 65.0439 97.2357 65.0635C97.1218 65.0863 96.9835 65.0977 96.8207 65.0977C96.5993 65.0977 96.3959 65.0537 96.2104 64.9658C96.0248 64.8779 95.8767 64.7314 95.766 64.5264C95.6586 64.318 95.6049 64.0381 95.6049 63.6865V58.4326ZM99.3355 59.7168V65H98.4273V59.7168H99.3355ZM98.359 58.3154C98.359 58.1689 98.4029 58.0452 98.4908 57.9443C98.582 57.8434 98.7154 57.793 98.8912 57.793C99.0637 57.793 99.1956 57.8434 99.2867 57.9443C99.3811 58.0452 99.4283 58.1689 99.4283 58.3154C99.4283 58.4554 99.3811 58.5758 99.2867 58.6768C99.1956 58.7744 99.0637 58.8232 98.8912 58.8232C98.7154 58.8232 98.582 58.7744 98.4908 58.6768C98.4029 58.5758 98.359 58.4554 98.359 58.3154ZM103.662 63.5986C103.662 63.4684 103.633 63.348 103.574 63.2373C103.519 63.1234 103.403 63.0208 103.227 62.9297C103.055 62.8353 102.794 62.7539 102.446 62.6855C102.153 62.6237 101.888 62.5505 101.65 62.4658C101.416 62.3812 101.216 62.2786 101.05 62.1582C100.887 62.0378 100.762 61.8962 100.674 61.7334C100.586 61.5706 100.542 61.3802 100.542 61.1621C100.542 60.9538 100.587 60.7568 100.679 60.5713C100.773 60.3857 100.905 60.2214 101.074 60.0781C101.247 59.9349 101.453 59.8226 101.694 59.7412C101.935 59.6598 102.204 59.6191 102.5 59.6191C102.923 59.6191 103.284 59.694 103.584 59.8438C103.883 59.9935 104.113 60.1937 104.272 60.4443C104.432 60.6917 104.512 60.9668 104.512 61.2695H103.608C103.608 61.123 103.564 60.9814 103.476 60.8447C103.392 60.7048 103.266 60.5892 103.1 60.498C102.938 60.4069 102.737 60.3613 102.5 60.3613C102.249 60.3613 102.046 60.4004 101.889 60.4785C101.736 60.5534 101.624 60.6494 101.553 60.7666C101.484 60.8838 101.45 61.0075 101.45 61.1377C101.45 61.2354 101.466 61.3232 101.499 61.4014C101.535 61.4762 101.596 61.5462 101.684 61.6113C101.772 61.6732 101.896 61.7318 102.055 61.7871C102.215 61.8424 102.418 61.8978 102.666 61.9531C103.099 62.0508 103.455 62.168 103.735 62.3047C104.015 62.4414 104.223 62.609 104.36 62.8076C104.497 63.0062 104.565 63.2471 104.565 63.5303C104.565 63.7614 104.516 63.973 104.419 64.165C104.324 64.3571 104.186 64.5231 104.004 64.6631C103.825 64.7998 103.61 64.9072 103.359 64.9854C103.112 65.0602 102.833 65.0977 102.524 65.0977C102.059 65.0977 101.665 65.0146 101.343 64.8486C101.02 64.6826 100.776 64.4678 100.61 64.2041C100.444 63.9404 100.361 63.6621 100.361 63.3691H101.269C101.282 63.6165 101.354 63.8135 101.484 63.96C101.614 64.1032 101.774 64.2057 101.963 64.2676C102.151 64.3262 102.339 64.3555 102.524 64.3555C102.772 64.3555 102.978 64.3229 103.144 64.2578C103.314 64.1927 103.442 64.1032 103.53 63.9893C103.618 63.8753 103.662 63.7451 103.662 63.5986ZM107.744 65.0977C107.376 65.0977 107.043 65.0358 106.743 64.9121C106.447 64.7852 106.191 64.6077 105.977 64.3799C105.765 64.152 105.602 63.8818 105.488 63.5693C105.374 63.2568 105.317 62.915 105.317 62.5439V62.3389C105.317 61.9092 105.381 61.5267 105.508 61.1914C105.635 60.8529 105.807 60.5664 106.025 60.332C106.243 60.0977 106.491 59.9202 106.768 59.7998C107.044 59.6794 107.331 59.6191 107.627 59.6191C108.005 59.6191 108.33 59.6842 108.604 59.8145C108.88 59.9447 109.106 60.127 109.282 60.3613C109.458 60.5924 109.588 60.8659 109.673 61.1816C109.757 61.4941 109.8 61.8359 109.8 62.207V62.6123H105.854V61.875H108.896V61.8066C108.883 61.5723 108.835 61.3444 108.75 61.123C108.669 60.9017 108.538 60.7194 108.359 60.5762C108.18 60.4329 107.936 60.3613 107.627 60.3613C107.422 60.3613 107.233 60.4053 107.061 60.4932C106.888 60.5778 106.74 60.7048 106.616 60.874C106.493 61.0433 106.396 61.25 106.328 61.4941C106.26 61.7383 106.226 62.0199 106.226 62.3389V62.5439C106.226 62.7946 106.26 63.0306 106.328 63.252C106.4 63.4701 106.502 63.6621 106.636 63.8281C106.772 63.9941 106.937 64.1243 107.129 64.2188C107.324 64.3132 107.546 64.3604 107.793 64.3604C108.112 64.3604 108.382 64.2952 108.604 64.165C108.825 64.0348 109.019 63.8607 109.185 63.6426L109.731 64.0771C109.618 64.2497 109.473 64.4141 109.297 64.5703C109.121 64.7266 108.905 64.8535 108.647 64.9512C108.394 65.0488 108.092 65.0977 107.744 65.0977ZM110.669 64.5215C110.669 64.3685 110.716 64.2399 110.811 64.1357C110.908 64.0283 111.048 63.9746 111.231 63.9746C111.413 63.9746 111.551 64.0283 111.646 64.1357C111.743 64.2399 111.792 64.3685 111.792 64.5215C111.792 64.6712 111.743 64.7982 111.646 64.9023C111.551 65.0065 111.413 65.0586 111.231 65.0586C111.048 65.0586 110.908 65.0065 110.811 64.9023C110.716 64.7982 110.669 64.6712 110.669 64.5215ZM115.836 57.8906L117.681 61.46L119.532 57.8906H120.601L118.15 62.3438V65H117.208V62.3438L114.756 57.8906H115.836ZM120.626 62.417V62.3047C120.626 61.9238 120.681 61.5706 120.792 61.2451C120.902 60.9163 121.062 60.6315 121.27 60.3906C121.479 60.1465 121.731 59.9577 122.027 59.8242C122.323 59.6875 122.655 59.6191 123.023 59.6191C123.394 59.6191 123.728 59.6875 124.024 59.8242C124.324 59.9577 124.578 60.1465 124.786 60.3906C124.998 60.6315 125.159 60.9163 125.269 61.2451C125.38 61.5706 125.435 61.9238 125.435 62.3047V62.417C125.435 62.7979 125.38 63.151 125.269 63.4766C125.159 63.8021 124.998 64.0869 124.786 64.3311C124.578 64.5719 124.325 64.7607 124.029 64.8975C123.736 65.0309 123.404 65.0977 123.033 65.0977C122.662 65.0977 122.328 65.0309 122.032 64.8975C121.736 64.7607 121.482 64.5719 121.27 64.3311C121.062 64.0869 120.902 63.8021 120.792 63.4766C120.681 63.151 120.626 62.7979 120.626 62.417ZM121.529 62.3047V62.417C121.529 62.6807 121.56 62.9297 121.622 63.1641C121.684 63.3952 121.776 63.6003 121.9 63.7793C122.027 63.9583 122.185 64.0999 122.374 64.2041C122.563 64.305 122.782 64.3555 123.033 64.3555C123.28 64.3555 123.497 64.305 123.682 64.2041C123.871 64.0999 124.027 63.9583 124.151 63.7793C124.275 63.6003 124.368 63.3952 124.429 63.1641C124.495 62.9297 124.527 62.6807 124.527 62.417V62.3047C124.527 62.0443 124.495 61.7985 124.429 61.5674C124.368 61.333 124.273 61.1263 124.146 60.9473C124.023 60.765 123.866 60.6217 123.678 60.5176C123.492 60.4134 123.274 60.3613 123.023 60.3613C122.776 60.3613 122.558 60.4134 122.369 60.5176C122.183 60.6217 122.027 60.765 121.9 60.9473C121.776 61.1263 121.684 61.333 121.622 61.5674C121.56 61.7985 121.529 62.0443 121.529 62.3047ZM129.601 63.7793V59.7168H130.509V65H129.645L129.601 63.7793ZM129.771 62.666L130.147 62.6562C130.147 63.0078 130.11 63.3333 130.035 63.6328C129.964 63.929 129.846 64.1862 129.684 64.4043C129.521 64.6224 129.308 64.7933 129.044 64.917C128.78 65.0374 128.46 65.0977 128.082 65.0977C127.825 65.0977 127.589 65.0602 127.374 64.9854C127.162 64.9105 126.98 64.7949 126.827 64.6387C126.674 64.4824 126.555 64.279 126.471 64.0283C126.389 63.7777 126.349 63.4766 126.349 63.125V59.7168H127.252V63.1348C127.252 63.3724 127.278 63.5693 127.33 63.7256C127.385 63.8786 127.459 64.0007 127.55 64.0918C127.644 64.1797 127.748 64.2415 127.862 64.2773C127.979 64.3132 128.1 64.3311 128.224 64.3311C128.608 64.3311 128.912 64.2578 129.137 64.1113C129.361 63.9616 129.522 63.7614 129.62 63.5107C129.721 63.2568 129.771 62.9753 129.771 62.666ZM132.589 60.5469V65H131.686V59.7168H132.565L132.589 60.5469ZM134.239 59.6875L134.235 60.5273C134.16 60.5111 134.088 60.5013 134.02 60.498C133.955 60.4915 133.88 60.4883 133.795 60.4883C133.587 60.4883 133.403 60.5208 133.243 60.5859C133.084 60.651 132.949 60.7422 132.838 60.8594C132.727 60.9766 132.64 61.1165 132.574 61.2793C132.513 61.4388 132.472 61.6146 132.452 61.8066L132.198 61.9531C132.198 61.6341 132.229 61.3346 132.291 61.0547C132.356 60.7747 132.456 60.5273 132.589 60.3125C132.723 60.0944 132.892 59.9251 133.097 59.8047C133.305 59.681 133.553 59.6191 133.839 59.6191C133.904 59.6191 133.979 59.6273 134.064 59.6436C134.148 59.6566 134.207 59.6712 134.239 59.6875ZM141.081 63.2031C141.081 63.0371 141.055 62.8906 141.003 62.7637C140.954 62.6335 140.866 62.5163 140.739 62.4121C140.615 62.3079 140.443 62.2087 140.221 62.1143C140.003 62.0199 139.726 61.9238 139.391 61.8262C139.04 61.722 138.722 61.6064 138.439 61.4795C138.156 61.3493 137.913 61.2012 137.712 61.0352C137.51 60.8691 137.355 60.6787 137.248 60.4639C137.14 60.249 137.087 60.0033 137.087 59.7266C137.087 59.4499 137.143 59.1943 137.257 58.96C137.371 58.7256 137.534 58.5221 137.746 58.3496C137.961 58.1738 138.216 58.0371 138.512 57.9395C138.809 57.8418 139.139 57.793 139.504 57.793C140.037 57.793 140.49 57.8955 140.861 58.1006C141.235 58.3024 141.52 58.5677 141.715 58.8965C141.911 59.222 142.008 59.5703 142.008 59.9414H141.071C141.071 59.6745 141.014 59.4385 140.9 59.2334C140.786 59.0251 140.614 58.8623 140.382 58.7451C140.151 58.6247 139.858 58.5645 139.504 58.5645C139.168 58.5645 138.892 58.6149 138.673 58.7158C138.455 58.8167 138.293 58.9535 138.185 59.126C138.081 59.2985 138.029 59.4954 138.029 59.7168C138.029 59.8665 138.06 60.0033 138.122 60.127C138.187 60.2474 138.286 60.3597 138.42 60.4639C138.556 60.568 138.729 60.6641 138.937 60.752C139.149 60.8398 139.401 60.9245 139.694 61.0059C140.098 61.1198 140.446 61.2467 140.739 61.3867C141.032 61.5267 141.273 61.6846 141.462 61.8604C141.654 62.0329 141.795 62.2298 141.886 62.4512C141.981 62.6693 142.028 62.9167 142.028 63.1934C142.028 63.4831 141.969 63.7451 141.852 63.9795C141.735 64.2139 141.567 64.4141 141.349 64.5801C141.131 64.7461 140.869 64.8747 140.563 64.9658C140.26 65.0537 139.922 65.0977 139.547 65.0977C139.219 65.0977 138.895 65.0521 138.576 64.9609C138.26 64.8698 137.972 64.7331 137.712 64.5508C137.454 64.3685 137.248 64.1439 137.091 63.877C136.938 63.6068 136.862 63.2943 136.862 62.9395H137.799C137.799 63.1836 137.847 63.3936 137.941 63.5693C138.035 63.7419 138.164 63.8851 138.327 63.999C138.493 64.113 138.68 64.1976 138.888 64.2529C139.1 64.305 139.32 64.3311 139.547 64.3311C139.876 64.3311 140.155 64.2855 140.382 64.1943C140.61 64.1032 140.783 63.973 140.9 63.8037C141.02 63.6344 141.081 63.4342 141.081 63.2031ZM146.125 63.7793V59.7168H147.033V65H146.169L146.125 63.7793ZM146.296 62.666L146.672 62.6562C146.672 63.0078 146.634 63.3333 146.559 63.6328C146.488 63.929 146.371 64.1862 146.208 64.4043C146.045 64.6224 145.832 64.7933 145.568 64.917C145.304 65.0374 144.984 65.0977 144.606 65.0977C144.349 65.0977 144.113 65.0602 143.898 64.9854C143.687 64.9105 143.504 64.7949 143.351 64.6387C143.198 64.4824 143.08 64.279 142.995 64.0283C142.914 63.7777 142.873 63.4766 142.873 63.125V59.7168H143.776V63.1348C143.776 63.3724 143.802 63.5693 143.854 63.7256C143.91 63.8786 143.983 64.0007 144.074 64.0918C144.168 64.1797 144.273 64.2415 144.387 64.2773C144.504 64.3132 144.624 64.3311 144.748 64.3311C145.132 64.3311 145.436 64.2578 145.661 64.1113C145.886 63.9616 146.047 63.7614 146.144 63.5107C146.245 63.2568 146.296 62.9753 146.296 62.666ZM150.324 64.3555C150.539 64.3555 150.738 64.3115 150.92 64.2236C151.102 64.1357 151.252 64.0153 151.369 63.8623C151.486 63.7061 151.553 63.5286 151.569 63.3301H152.429C152.412 63.6426 152.307 63.9339 152.111 64.2041C151.919 64.471 151.667 64.6875 151.354 64.8535C151.042 65.0163 150.699 65.0977 150.324 65.0977C149.927 65.0977 149.58 65.0277 149.284 64.8877C148.991 64.7477 148.747 64.5557 148.552 64.3115C148.36 64.0674 148.215 63.7874 148.117 63.4717C148.023 63.1527 147.976 62.8158 147.976 62.4609V62.2559C147.976 61.901 148.023 61.5658 148.117 61.25C148.215 60.931 148.36 60.6494 148.552 60.4053C148.747 60.1611 148.991 59.9691 149.284 59.8291C149.58 59.6891 149.927 59.6191 150.324 59.6191C150.738 59.6191 151.099 59.7038 151.408 59.873C151.717 60.0391 151.96 60.2669 152.136 60.5566C152.315 60.8431 152.412 61.1686 152.429 61.5332H151.569C151.553 61.3151 151.491 61.1182 151.384 60.9424C151.28 60.7666 151.136 60.6266 150.954 60.5225C150.775 60.415 150.565 60.3613 150.324 60.3613C150.048 60.3613 149.815 60.4167 149.626 60.5273C149.44 60.6348 149.292 60.7812 149.182 60.9668C149.074 61.1491 148.996 61.3525 148.947 61.5771C148.902 61.7985 148.879 62.0247 148.879 62.2559V62.4609C148.879 62.6921 148.902 62.9199 148.947 63.1445C148.993 63.3691 149.069 63.5726 149.177 63.7549C149.287 63.9372 149.436 64.0837 149.621 64.1943C149.81 64.3018 150.044 64.3555 150.324 64.3555ZM155.359 64.3555C155.573 64.3555 155.772 64.3115 155.954 64.2236C156.137 64.1357 156.286 64.0153 156.404 63.8623C156.521 63.7061 156.587 63.5286 156.604 63.3301H157.463C157.447 63.6426 157.341 63.9339 157.146 64.2041C156.954 64.471 156.701 64.6875 156.389 64.8535C156.076 65.0163 155.733 65.0977 155.359 65.0977C154.961 65.0977 154.615 65.0277 154.319 64.8877C154.026 64.7477 153.781 64.5557 153.586 64.3115C153.394 64.0674 153.249 63.7874 153.152 63.4717C153.057 63.1527 153.01 62.8158 153.01 62.4609V62.2559C153.01 61.901 153.057 61.5658 153.152 61.25C153.249 60.931 153.394 60.6494 153.586 60.4053C153.781 60.1611 154.026 59.9691 154.319 59.8291C154.615 59.6891 154.961 59.6191 155.359 59.6191C155.772 59.6191 156.133 59.7038 156.443 59.873C156.752 60.0391 156.994 60.2669 157.17 60.5566C157.349 60.8431 157.447 61.1686 157.463 61.5332H156.604C156.587 61.3151 156.526 61.1182 156.418 60.9424C156.314 60.7666 156.171 60.6266 155.988 60.5225C155.809 60.415 155.599 60.3613 155.359 60.3613C155.082 60.3613 154.849 60.4167 154.66 60.5273C154.475 60.6348 154.327 60.7812 154.216 60.9668C154.109 61.1491 154.03 61.3525 153.982 61.5771C153.936 61.7985 153.913 62.0247 153.913 62.2559V62.4609C153.913 62.6921 153.936 62.9199 153.982 63.1445C154.027 63.3691 154.104 63.5726 154.211 63.7549C154.322 63.9372 154.47 64.0837 154.655 64.1943C154.844 64.3018 155.079 64.3555 155.359 64.3555ZM160.471 65.0977C160.103 65.0977 159.77 65.0358 159.47 64.9121C159.174 64.7852 158.918 64.6077 158.704 64.3799C158.492 64.152 158.329 63.8818 158.215 63.5693C158.101 63.2568 158.044 62.915 158.044 62.5439V62.3389C158.044 61.9092 158.108 61.5267 158.235 61.1914C158.362 60.8529 158.534 60.5664 158.752 60.332C158.97 60.0977 159.218 59.9202 159.495 59.7998C159.771 59.6794 160.058 59.6191 160.354 59.6191C160.732 59.6191 161.057 59.6842 161.33 59.8145C161.607 59.9447 161.833 60.127 162.009 60.3613C162.185 60.5924 162.315 60.8659 162.4 61.1816C162.484 61.4941 162.527 61.8359 162.527 62.207V62.6123H158.581V61.875H161.623V61.8066C161.61 61.5723 161.562 61.3444 161.477 61.123C161.396 60.9017 161.265 60.7194 161.086 60.5762C160.907 60.4329 160.663 60.3613 160.354 60.3613C160.149 60.3613 159.96 60.4053 159.788 60.4932C159.615 60.5778 159.467 60.7048 159.343 60.874C159.219 61.0433 159.123 61.25 159.055 61.4941C158.987 61.7383 158.953 62.0199 158.953 62.3389V62.5439C158.953 62.7946 158.987 63.0306 159.055 63.252C159.127 63.4701 159.229 63.6621 159.363 63.8281C159.499 63.9941 159.664 64.1243 159.856 64.2188C160.051 64.3132 160.273 64.3604 160.52 64.3604C160.839 64.3604 161.109 64.2952 161.33 64.165C161.552 64.0348 161.746 63.8607 161.912 63.6426L162.458 64.0771C162.344 64.2497 162.2 64.4141 162.024 64.5703C161.848 64.7266 161.632 64.8535 161.374 64.9512C161.121 65.0488 160.819 65.0977 160.471 65.0977ZM166.458 63.5986C166.458 63.4684 166.428 63.348 166.37 63.2373C166.314 63.1234 166.199 63.0208 166.023 62.9297C165.851 62.8353 165.59 62.7539 165.242 62.6855C164.949 62.6237 164.684 62.5505 164.446 62.4658C164.212 62.3812 164.011 62.2786 163.845 62.1582C163.683 62.0378 163.557 61.8962 163.469 61.7334C163.381 61.5706 163.337 61.3802 163.337 61.1621C163.337 60.9538 163.383 60.7568 163.474 60.5713C163.569 60.3857 163.7 60.2214 163.87 60.0781C164.042 59.9349 164.249 59.8226 164.49 59.7412C164.731 59.6598 164.999 59.6191 165.296 59.6191C165.719 59.6191 166.08 59.694 166.379 59.8438C166.679 59.9935 166.908 60.1937 167.068 60.4443C167.227 60.6917 167.307 60.9668 167.307 61.2695H166.404C166.404 61.123 166.36 60.9814 166.272 60.8447C166.187 60.7048 166.062 60.5892 165.896 60.498C165.733 60.4069 165.533 60.3613 165.296 60.3613C165.045 60.3613 164.841 60.4004 164.685 60.4785C164.532 60.5534 164.42 60.6494 164.348 60.7666C164.28 60.8838 164.246 61.0075 164.246 61.1377C164.246 61.2354 164.262 61.3232 164.295 61.4014C164.33 61.4762 164.392 61.5462 164.48 61.6113C164.568 61.6732 164.692 61.7318 164.851 61.7871C165.011 61.8424 165.214 61.8978 165.462 61.9531C165.894 62.0508 166.251 62.168 166.531 62.3047C166.811 62.4414 167.019 62.609 167.156 62.8076C167.293 63.0062 167.361 63.2471 167.361 63.5303C167.361 63.7614 167.312 63.973 167.214 64.165C167.12 64.3571 166.982 64.5231 166.799 64.6631C166.62 64.7998 166.406 64.9072 166.155 64.9854C165.907 65.0602 165.629 65.0977 165.32 65.0977C164.854 65.0977 164.461 65.0146 164.138 64.8486C163.816 64.6826 163.572 64.4678 163.406 64.2041C163.24 63.9404 163.157 63.6621 163.157 63.3691H164.065C164.078 63.6165 164.15 63.8135 164.28 63.96C164.41 64.1032 164.57 64.2057 164.758 64.2676C164.947 64.3262 165.134 64.3555 165.32 64.3555C165.567 64.3555 165.774 64.3229 165.94 64.2578C166.109 64.1927 166.238 64.1032 166.326 63.9893C166.414 63.8753 166.458 63.7451 166.458 63.5986ZM171.424 63.5986C171.424 63.4684 171.394 63.348 171.336 63.2373C171.28 63.1234 171.165 63.0208 170.989 62.9297C170.817 62.8353 170.556 62.7539 170.208 62.6855C169.915 62.6237 169.65 62.5505 169.412 62.4658C169.178 62.3812 168.977 62.2786 168.811 62.1582C168.649 62.0378 168.523 61.8962 168.435 61.7334C168.347 61.5706 168.304 61.3802 168.304 61.1621C168.304 60.9538 168.349 60.7568 168.44 60.5713C168.535 60.3857 168.666 60.2214 168.836 60.0781C169.008 59.9349 169.215 59.8226 169.456 59.7412C169.697 59.6598 169.965 59.6191 170.262 59.6191C170.685 59.6191 171.046 59.694 171.346 59.8438C171.645 59.9935 171.874 60.1937 172.034 60.4443C172.193 60.6917 172.273 60.9668 172.273 61.2695H171.37C171.37 61.123 171.326 60.9814 171.238 60.8447C171.153 60.7048 171.028 60.5892 170.862 60.498C170.699 60.4069 170.499 60.3613 170.262 60.3613C170.011 60.3613 169.807 60.4004 169.651 60.4785C169.498 60.5534 169.386 60.6494 169.314 60.7666C169.246 60.8838 169.212 61.0075 169.212 61.1377C169.212 61.2354 169.228 61.3232 169.261 61.4014C169.296 61.4762 169.358 61.5462 169.446 61.6113C169.534 61.6732 169.658 61.7318 169.817 61.7871C169.977 61.8424 170.18 61.8978 170.428 61.9531C170.86 62.0508 171.217 62.168 171.497 62.3047C171.777 62.4414 171.985 62.609 172.122 62.8076C172.259 63.0062 172.327 63.2471 172.327 63.5303C172.327 63.7614 172.278 63.973 172.18 64.165C172.086 64.3571 171.948 64.5231 171.765 64.6631C171.586 64.7998 171.372 64.9072 171.121 64.9854C170.873 65.0602 170.595 65.0977 170.286 65.0977C169.82 65.0977 169.427 65.0146 169.104 64.8486C168.782 64.6826 168.538 64.4678 168.372 64.2041C168.206 63.9404 168.123 63.6621 168.123 63.3691H169.031C169.044 63.6165 169.116 63.8135 169.246 63.96C169.376 64.1032 169.536 64.2057 169.724 64.2676C169.913 64.3262 170.1 64.3555 170.286 64.3555C170.533 64.3555 170.74 64.3229 170.906 64.2578C171.075 64.1927 171.204 64.1032 171.292 63.9893C171.38 63.8753 171.424 63.7451 171.424 63.5986ZM173.328 64.5215C173.328 64.3685 173.375 64.2399 173.47 64.1357C173.567 64.0283 173.707 63.9746 173.89 63.9746C174.072 63.9746 174.21 64.0283 174.305 64.1357C174.402 64.2399 174.451 64.3685 174.451 64.5215C174.451 64.6712 174.402 64.7982 174.305 64.9023C174.21 65.0065 174.072 65.0586 173.89 65.0586C173.707 65.0586 173.567 65.0065 173.47 64.9023C173.375 64.7982 173.328 64.6712 173.328 64.5215Z" fill="#212529"/>
<line y1="49.75" x2="168" y2="49.75" stroke="#5D5D5D" stroke-width="0.5"/>
</svg>
