<svg width="18" height="20" viewBox="0 0 18 20" fill="none" xmlns="http://www.w3.org/2000/svg">
<path d="M17.1819 8.90341C16.7302 8.90341 16.3638 8.53697 16.3638 8.08528C16.3638 5.7903 15.4703 3.63359 13.8478 2.01021C13.5279 1.69036 13.5279 1.17335 13.8478 0.853353C14.1676 0.533502 14.6848 0.533502 15.0047 0.853353C16.9365 2.78504 18 5.35344 18 8.08528C18 8.53697 17.6336 8.90341 17.1819 8.90341Z" fill="#C8963C"/>
<path d="M0.81813 8.90341C0.366593 8.90341 0 8.53697 0 8.08528C0 5.35344 1.06367 2.78504 2.99536 0.853353C3.31522 0.533502 3.83237 0.533502 4.15222 0.853353C4.47222 1.17335 4.47222 1.69036 4.15222 2.01021C2.52974 3.63269 1.63641 5.7903 1.63641 8.08528C1.63641 8.53697 1.26982 8.90341 0.81813 8.90341Z" fill="#C8963C"/>
<path d="M16.6737 13.8379C15.4366 12.7922 14.7272 11.2639 14.7272 9.64467V7.36362C14.7272 4.48451 12.5885 2.10113 9.81814 1.70188V0.81813C9.81814 0.365694 9.45155 0 9.00001 0C8.54832 0 8.18173 0.365694 8.18173 0.81813V1.70188C5.41064 2.10113 3.27265 4.48451 3.27265 7.36362V9.64467C3.27265 11.2639 2.56329 12.7922 1.31894 13.8444C1.00059 14.1169 0.818115 14.5128 0.818115 14.9317C0.818115 15.7214 1.46036 16.3636 2.25003 16.3636H15.75C16.5395 16.3636 17.1818 15.7214 17.1818 14.9317C17.1818 14.5128 16.9993 14.1169 16.6737 13.8379Z" fill="#C8963C"/>
<path d="M9.00014 19.6363C10.4818 19.6363 11.7213 18.58 12.0061 17.1818H5.99414C6.27879 18.58 7.51834 19.6363 9.00014 19.6363Z" fill="#C8963C"/>
</svg>
