<svg xmlns="http://www.w3.org/2000/svg" width="20.211" height="20.273" viewBox="0 0 20.211 20.273">
  <path id="Icon_ionic-ios-call" data-name="Icon ionic-ios-call" d="M24.179,20.377A17.029,17.029,0,0,0,20.622,18c-1.066-.512-1.457-.5-2.211.042-.628.454-1.034.876-1.758.718a10.485,10.485,0,0,1-3.531-2.613,10.409,10.409,0,0,1-2.613-3.531c-.153-.728.269-1.129.718-1.758.544-.755.559-1.145.042-2.211a16.693,16.693,0,0,0-2.38-3.557c-.776-.776-.95-.607-1.378-.454A7.839,7.839,0,0,0,6.25,5.3,3.805,3.805,0,0,0,4.735,6.9c-.3.649-.649,1.858,1.124,5.014a27.978,27.978,0,0,0,4.919,6.561h0l.005.005.005.005h0a28.087,28.087,0,0,0,6.561,4.919c3.156,1.773,4.365,1.425,5.014,1.124a3.74,3.74,0,0,0,1.6-1.515,7.839,7.839,0,0,0,.67-1.261S24.96,21.153,24.179,20.377Z" transform="translate(-4.49 -4.502)" fill="#fffaf3"/>
</svg>
