<svg width="19" height="19" viewBox="0 0 19 19" fill="none" xmlns="http://www.w3.org/2000/svg">
<path d="M18.5386 8.38048L17.2428 7.08486C16.9352 6.7773 16.6832 6.16952 16.6832 5.73366V3.90132C16.6832 3.02968 15.9711 2.31762 15.0997 2.31716H13.2666C12.8313 2.31716 12.2228 2.06466 11.9152 1.75734L10.6196 0.461715C10.004 -0.153905 8.99599 -0.153905 8.38037 0.461715L7.08474 1.75827C6.77691 2.06582 6.16774 2.31762 5.73331 2.31762H3.90097C3.03049 2.31762 2.3175 3.02968 2.3175 3.90132V5.7337C2.3175 6.16785 2.06552 6.77753 1.75792 7.0849L0.462063 8.38053C-0.154021 8.99615 -0.154021 10.0041 0.462063 10.6207L1.75792 11.9163C2.06571 12.2239 2.3175 12.8333 2.3175 13.2675V15.0999C2.3175 15.9706 3.03049 16.6836 3.90097 16.6836H5.73336C6.16871 16.6836 6.77719 16.9356 7.08479 17.243L8.38041 18.5391C8.99603 19.1542 10.004 19.1542 10.6196 18.5391L11.9153 17.243C12.2231 16.9354 12.8313 16.6836 13.2667 16.6836H15.0998C15.9712 16.6836 16.6832 15.9706 16.6832 15.0999V13.2675C16.6832 12.8315 16.9354 12.2237 17.2428 11.9163L18.5387 10.6207C19.1538 10.0041 19.1538 8.9961 18.5386 8.38048ZM8.2431 13.063L4.7496 9.569L5.86923 8.4496L8.24338 10.8238L13.1306 5.93772L14.2499 7.05712L8.2431 13.063Z" fill="#072945"/>
</svg>
