<svg width="28" height="28" viewBox="0 0 28 28" fill="none" xmlns="http://www.w3.org/2000/svg">
<path d="M27.3201 12.3502L25.4104 10.4408C24.9572 9.9876 24.5857 9.09193 24.5857 8.4496V5.74931C24.5857 4.46479 23.5364 3.41544 22.2522 3.41476H19.5508C18.9093 3.41476 18.0126 3.04266 17.5593 2.58977L15.6499 0.680422C14.7427 -0.226807 13.2572 -0.226807 12.35 0.680422L10.4407 2.59113C9.98702 3.04437 9.0893 3.41544 8.44909 3.41544H5.7488C4.46599 3.41544 3.41527 4.46479 3.41527 5.74931V8.44967C3.41527 9.08947 3.04393 9.98794 2.59062 10.4409L0.680935 12.3503C-0.226978 13.2575 -0.226978 14.7429 0.680935 15.6516L2.59062 17.5609C3.0442 18.0142 3.41527 18.9123 3.41527 19.5522V22.2525C3.41527 23.5357 4.46599 24.5864 5.7488 24.5864H8.44916C9.09073 24.5864 9.98743 24.9577 10.4407 25.4107L12.3501 27.3207C13.2573 28.2273 14.7427 28.2273 15.65 27.3207L17.5593 25.4107C18.013 24.9575 18.9093 24.5864 19.5509 24.5864H22.2523C23.5365 24.5864 24.5858 23.5357 24.5858 22.2525V19.5522C24.5858 18.9096 24.9575 18.0139 25.4105 17.5609L27.3202 15.6516C28.2266 14.7429 28.2266 13.2574 27.3201 12.3502ZM12.1477 19.2507L6.99941 14.1017L8.64939 12.452L12.1481 15.9508L19.3503 8.75032L20.9999 10.4L12.1477 19.2507Z" fill="white"/>
</svg>
