<svg width="23" height="24" viewBox="0 0 23 24" fill="none" xmlns="http://www.w3.org/2000/svg">
<path d="M22.5271 3.82474C22.3586 3.62377 22.1519 3.45829 21.9189 3.33792C21.6859 3.21754 21.4313 3.14466 21.1699 3.12353C19.5111 2.99235 17.8764 2.64639 16.3067 2.09433C14.9906 1.63138 13.7279 1.0285 12.5405 0.296067C12.23 0.102571 11.8715 0 11.5057 0C11.1398 0 10.7813 0.102571 10.4708 0.296067C9.27827 1.02644 8.01212 1.62919 6.69332 2.09433C5.12361 2.64639 3.48887 2.99235 1.83009 3.12353C1.5687 3.14466 1.31411 3.21754 1.08112 3.33792C0.848134 3.45829 0.641392 3.62377 0.472908 3.82474C0.301022 4.01941 0.171128 4.24744 0.0913436 4.49458C0.0115587 4.74172 -0.016403 5.00265 0.00920516 5.26109L0.552077 11.8321C0.713954 13.7708 1.33872 15.6424 2.37389 17.2897C3.40906 18.9369 4.82441 20.3116 6.50105 21.2984L10.4934 23.6509C10.7991 23.8287 11.1464 23.9224 11.5 23.9224C11.8536 23.9224 12.2009 23.8287 12.5066 23.6509L16.4989 21.2984C18.1756 20.3116 19.5909 18.9369 20.6261 17.2897C21.6613 15.6424 22.286 13.7708 22.4479 11.8321L22.9908 5.26109C23.0164 5.00265 22.9884 4.74172 22.9087 4.49458C22.8289 4.24744 22.699 4.01941 22.5271 3.82474Z" fill="#0DB561"/>
<path d="M10.6517 14.4902C10.5403 14.4907 10.4299 14.469 10.3269 14.4262C10.224 14.3835 10.1306 14.3207 10.0523 14.2414L7.79036 11.9794C7.67757 11.8144 7.62667 11.6149 7.64664 11.416C7.66661 11.2171 7.75617 11.0317 7.89951 10.8924C8.04285 10.7531 8.23078 10.6689 8.43014 10.6547C8.6295 10.6404 8.8275 10.697 8.9892 10.8145L10.6517 12.477L14.5763 8.55252C14.7357 8.44916 14.9252 8.40231 15.1144 8.41949C15.3036 8.43667 15.4816 8.51687 15.6198 8.64725C15.758 8.77763 15.8484 8.95063 15.8766 9.13853C15.9047 9.32643 15.869 9.51834 15.7751 9.68351L11.2512 14.2074C11.1758 14.2929 11.0837 14.3621 10.9806 14.4107C10.8776 14.4593 10.7656 14.4864 10.6517 14.4902Z" fill="#252525"/>
</svg>
