<svg width="21" height="21" viewBox="0 0 21 21" fill="none" xmlns="http://www.w3.org/2000/svg">
    <path d="M10.4879 3.05721e-10C10.1114 3.05721e-10 9.73527 0.0202358 9.361 0.060576C9.01795 0.0956163 8.67911 0.153083 8.34483 0.222813C8.28014 0.236347 8.2154 0.250626 8.15071 0.265562C6.18113 0.713991 4.38269 1.72101 2.97104 3.16585C2.83977 3.30041 2.71126 3.43895 2.5856 3.58143C-1.22767 7.95919 -0.77004 14.5993 3.60777 18.4126C7.79894 22.0633 14.1077 21.8204 18.0058 17.8583C18.1373 17.7237 18.2658 17.5852 18.3912 17.4427C20.0741 15.5262 21.0015 13.0625 21 10.5121C21 4.70636 16.2936 -4.38001e-05 10.4879 3.05721e-10ZM3.43813 3.69146C3.49349 3.63399 3.55096 3.57898 3.60737 3.52326C3.67255 3.45914 3.73737 3.39466 3.80395 3.33264C3.86247 3.27798 3.92274 3.22542 3.98266 3.17216C4.05028 3.11224 4.11756 3.05232 4.18694 2.9945C4.24791 2.94299 4.31063 2.89359 4.37301 2.84383C4.44309 2.78777 4.51317 2.7317 4.58535 2.67774C4.64912 2.62973 4.71395 2.58313 4.77912 2.53758C4.85166 2.48572 4.92454 2.43246 4.99848 2.3841C5.0647 2.33925 5.13163 2.2958 5.19891 2.2527C5.27389 2.20469 5.34923 2.15739 5.42527 2.11254C5.49373 2.07167 5.56263 2.03146 5.63201 1.992C5.70958 1.94785 5.78745 1.90475 5.86572 1.8627C5.93581 1.82534 6.00589 1.78877 6.07597 1.75302C6.15586 1.71273 6.23645 1.67383 6.31739 1.63564C6.38748 1.60235 6.46036 1.56906 6.53254 1.53753C6.61489 1.50249 6.69828 1.46745 6.78168 1.43241C6.85421 1.40262 6.9264 1.37354 6.99963 1.34551C7.08443 1.31327 7.17028 1.28313 7.25612 1.253C7.32936 1.22742 7.40259 1.20184 7.47688 1.17766C7.56413 1.14963 7.65208 1.1237 7.74038 1.09812C7.81432 1.07675 7.88755 1.05467 7.96184 1.0347C7.99022 1.02734 8.0186 1.02138 8.04699 1.01402C7.00979 2.02113 6.24009 3.27102 5.80756 4.65051C4.97588 4.43116 4.17074 4.12131 3.40659 3.7265C3.41816 3.71423 3.42797 3.70197 3.43813 3.69146ZM2.93425 4.25561C3.77596 4.71166 4.66853 5.06688 5.59346 5.31382C5.14004 6.89046 4.90203 8.5212 4.886 10.1617H0.68466C0.761004 7.9984 1.55208 5.92147 2.93425 4.25561ZM2.93425 16.7685C1.55217 15.1026 0.761092 13.0257 0.68466 10.8625H4.886C4.90203 12.5029 5.14 14.1337 5.59346 15.7103C4.66857 15.9573 3.77601 16.3125 2.93425 16.7685ZM7.95974 19.9908C7.88895 19.9729 7.81572 19.9498 7.74284 19.9284C7.65418 19.9025 7.56518 19.8766 7.47758 19.8482C7.40364 19.8244 7.33076 19.7988 7.25788 19.7732C7.17168 19.7434 7.08548 19.7129 7.00033 19.6804C6.92745 19.6527 6.85561 19.6236 6.78343 19.5942C6.69968 19.5591 6.61594 19.5241 6.53289 19.489C6.46141 19.4575 6.39028 19.4251 6.3195 19.3916C6.23785 19.3531 6.15656 19.3138 6.07421 19.2732C6.00413 19.2382 5.93405 19.2031 5.86397 19.1649C5.78478 19.1225 5.70629 19.0791 5.6278 19.0342C5.55772 18.9953 5.49114 18.9554 5.42352 18.9147C5.34643 18.8685 5.27074 18.8208 5.19505 18.7721C5.12848 18.7297 5.0619 18.6866 4.99637 18.6425C4.92174 18.592 4.8478 18.5394 4.77457 18.4869C4.71044 18.441 4.64632 18.3951 4.58325 18.3467C4.51071 18.2921 4.43958 18.2356 4.3688 18.1789C4.30678 18.1295 4.24511 18.0804 4.18449 18.0296C4.11441 17.9714 4.04678 17.9108 3.9788 17.8506C3.91923 17.7976 3.85931 17.7454 3.80115 17.6915C3.73422 17.6291 3.6694 17.5643 3.60422 17.5002C3.54781 17.4444 3.49034 17.3894 3.43498 17.3323C3.42481 17.3214 3.415 17.3102 3.40484 17.2997C4.16894 16.9047 4.97408 16.5948 5.80581 16.3754C6.23842 17.7548 7.00808 19.0047 8.04523 20.0118C8.01685 20.0045 7.98812 19.9985 7.95974 19.9908ZM10.1375 20.2957C8.63812 20.0826 7.32375 18.5177 6.4968 16.2068C7.69238 15.9391 8.91244 15.7955 10.1375 15.7783V20.2957ZM10.1375 15.0775C8.83793 15.0945 7.54385 15.2489 6.27675 15.5379C5.83677 14.0177 5.60467 12.4449 5.5868 10.8625H10.1375V15.0775ZM10.1375 10.1617H5.5868C5.60463 8.57919 5.83673 7.0064 6.27675 5.48622C7.54385 5.77517 8.83798 5.92953 10.1375 5.94665V10.1617ZM10.1375 5.24585C8.91239 5.22876 7.69238 5.08514 6.4968 4.8173C7.32375 2.50639 8.63812 0.94149 10.1375 0.728445V5.24585ZM18.0415 4.25561C19.4236 5.92151 20.2147 7.99844 20.2911 10.1617H16.0898C16.0738 8.5212 15.8358 6.89046 15.3823 5.31382C16.3072 5.06675 17.1998 4.71157 18.0415 4.25561ZM13.0133 1.03295C13.0868 1.05117 13.1601 1.07429 13.233 1.09567C13.3216 1.1216 13.4106 1.14753 13.4982 1.17591C13.5721 1.19974 13.645 1.22532 13.7179 1.2509C13.8041 1.28068 13.8903 1.31117 13.9755 1.34375C14.0483 1.37144 14.1202 1.40052 14.1924 1.42995C14.2761 1.46499 14.3599 1.50003 14.4429 1.53507C14.5144 1.56661 14.5855 1.59907 14.6563 1.63249C14.7379 1.67103 14.8192 1.71028 14.9016 1.75092C14.9717 1.78596 15.0417 1.821 15.1118 1.8592C15.191 1.9016 15.2695 1.94505 15.348 1.9899C15.4181 2.02879 15.4846 2.06874 15.5523 2.10938C15.6294 2.15564 15.7051 2.20329 15.7807 2.252C15.8473 2.2944 15.9139 2.3375 15.9794 2.38165C16.0541 2.43211 16.1276 2.48432 16.2009 2.53688C16.2653 2.58278 16.3295 2.62903 16.3929 2.67704C16.4651 2.73135 16.5359 2.78777 16.607 2.84453C16.6687 2.89359 16.7307 2.94264 16.7913 2.9938C16.8614 3.05197 16.929 3.11259 16.997 3.17286C17.0566 3.22577 17.1165 3.27798 17.1746 3.33194C17.2416 3.39431 17.3064 3.45914 17.3716 3.52326C17.428 3.57898 17.4855 3.63399 17.5408 3.69111C17.551 3.70197 17.5608 3.71318 17.5709 3.72369C16.8069 4.11869 16.0017 4.42866 15.17 4.64806C14.7365 3.26843 13.9659 2.01867 12.9278 1.01192C12.9561 1.01928 12.9849 1.02524 13.0133 1.03295ZM10.8383 0.728445C12.3377 0.94149 13.652 2.50639 14.479 4.8173C13.2834 5.08501 12.0634 5.22863 10.8383 5.24585V0.728445ZM10.8383 5.94665C12.1379 5.92957 13.4319 5.77522 14.699 5.48622C15.139 7.0064 15.3711 8.57919 15.389 10.1617H10.8383V5.94665ZM10.8383 10.8625H15.389C15.3712 12.4449 15.1391 14.0177 14.699 15.5379C13.4319 15.2489 12.1379 15.0946 10.8383 15.0775V10.8625ZM10.8383 20.2957V15.7783C12.0634 15.7954 13.2834 15.939 14.479 16.2068C13.652 18.5177 12.3377 20.0826 10.8383 20.2957ZM17.5377 17.3327C17.4823 17.3898 17.4252 17.4448 17.3688 17.5005C17.3036 17.5646 17.2384 17.6295 17.1715 17.6918C17.1133 17.7461 17.0534 17.7969 16.9938 17.8513C16.9259 17.9115 16.8582 17.9718 16.7889 18.03C16.7275 18.0811 16.6652 18.1305 16.6028 18.1803C16.5327 18.2363 16.4626 18.2924 16.3904 18.3464C16.3267 18.3944 16.2618 18.441 16.1967 18.4865C16.1241 18.5384 16.0513 18.5917 15.9773 18.64C15.9111 18.6849 15.8442 18.7283 15.7769 18.7711C15.7019 18.8194 15.6263 18.8662 15.5502 18.9112C15.4801 18.9522 15.4132 18.9922 15.3441 19.0318C15.2666 19.0759 15.1886 19.119 15.1101 19.1611C15.04 19.1984 14.9699 19.235 14.8998 19.2707C14.8199 19.311 14.7393 19.3499 14.6584 19.3881C14.5883 19.4214 14.5154 19.4547 14.4433 19.4862C14.3609 19.5213 14.2775 19.5563 14.1941 19.5914C14.1216 19.6208 14.0494 19.6502 13.9765 19.6779C13.891 19.7105 13.8052 19.741 13.719 19.7708C13.6461 19.7963 13.5732 19.8219 13.4993 19.8458C13.4117 19.8741 13.3241 19.9001 13.2347 19.9256C13.1615 19.9474 13.0879 19.9691 13.014 19.9891C12.9856 19.9964 12.9572 20.0024 12.9288 20.0097C13.966 19.0026 14.7357 17.7528 15.1682 16.3733C15.9999 16.5926 16.8051 16.9025 17.5692 17.2973C17.5576 17.3099 17.5478 17.3221 17.5377 17.3327ZM18.0415 16.7685C17.1998 16.3125 16.3073 15.9572 15.3823 15.7103C15.8358 14.1337 16.0738 12.5029 16.0898 10.8625H20.2911C20.2148 13.0257 19.4237 15.1026 18.0415 16.7685Z" fill="black"/>
</svg>
