<svg xmlns="http://www.w3.org/2000/svg" width="11.563" height="11.563" viewBox="0 0 11.563 11.563">
  <path id="Icon_simple-instagram" data-name="Icon simple-instagram" d="M5.781,0C4.211,0,4.015.007,3.4.035A4.263,4.263,0,0,0,1.995.3,2.831,2.831,0,0,0,.97.97,2.821,2.821,0,0,0,.3,1.995,4.251,4.251,0,0,0,.035,3.4C.006,4.015,0,4.211,0,5.781S.007,7.548.035,8.165A4.266,4.266,0,0,0,.3,9.568,2.835,2.835,0,0,0,.97,10.592a2.827,2.827,0,0,0,1.024.667,4.268,4.268,0,0,0,1.4.269c.617.029.813.035,2.383.035s1.767-.007,2.383-.035a4.278,4.278,0,0,0,1.4-.269,2.955,2.955,0,0,0,1.691-1.691,4.266,4.266,0,0,0,.269-1.4c.029-.617.035-.813.035-2.383s-.007-1.767-.035-2.383a4.275,4.275,0,0,0-.269-1.4A2.837,2.837,0,0,0,10.592.97,2.817,2.817,0,0,0,9.568.3a4.253,4.253,0,0,0-1.4-.269C7.548.006,7.352,0,5.781,0Zm0,1.041c1.543,0,1.727.008,2.337.034a3.185,3.185,0,0,1,1.073.2,1.9,1.9,0,0,1,1.1,1.1,3.192,3.192,0,0,1,.2,1.073c.027.61.034.793.034,2.337s-.007,1.727-.036,2.337a3.253,3.253,0,0,1-.2,1.073,1.836,1.836,0,0,1-.433.666,1.8,1.8,0,0,1-.665.432,3.215,3.215,0,0,1-1.077.2c-.614.027-.794.034-2.341.034s-1.728-.007-2.341-.036a3.278,3.278,0,0,1-1.077-.2,1.79,1.79,0,0,1-.664-.433,1.755,1.755,0,0,1-.434-.665,3.281,3.281,0,0,1-.2-1.077c-.022-.607-.029-.794-.029-2.334s.008-1.728.029-2.342a3.277,3.277,0,0,1,.2-1.076,1.714,1.714,0,0,1,.434-.665,1.71,1.71,0,0,1,.664-.433,3.2,3.2,0,0,1,1.07-.2c.614-.022.795-.029,2.341-.029l.022.014Zm0,1.772A2.969,2.969,0,1,0,8.75,5.781,2.968,2.968,0,0,0,5.781,2.813Zm0,4.9A1.927,1.927,0,1,1,7.708,5.781,1.927,1.927,0,0,1,5.781,7.708ZM9.561,2.7A.694.694,0,1,1,8.868,2,.694.694,0,0,1,9.561,2.7Z" fill="#004f92"/>
</svg>
