<svg xmlns="http://www.w3.org/2000/svg" width="10.783" height="10.783" viewBox="0 0 10.783 10.783">
  <path id="Icon_awesome-linkedin-in" data-name="Icon awesome-linkedin-in" d="M2.414,10.784H.178v-7.2H2.414ZM1.295,2.6A1.3,1.3,0,1,1,2.589,1.3,1.306,1.306,0,0,1,1.295,2.6Zm9.486,8.181H8.55v-3.5c0-.835-.017-1.906-1.162-1.906-1.162,0-1.34.907-1.34,1.846v3.565H3.814v-7.2H5.958v.982H5.99A2.349,2.349,0,0,1,8.1,3.4c2.263,0,2.678,1.49,2.678,3.425v3.955Z" transform="translate(0 -0.001)" fill="#004f92"/>
</svg>
