<svg width="100" height="18" viewBox="0 0 100 18" fill="none" xmlns="http://www.w3.org/2000/svg">
<path d="M18.462 6.61421C18.3118 6.15346 17.9134 5.8185 17.4333 5.74858L12.5702 5.04194L10.3972 0.651123C9.96693 -0.217041 8.54486 -0.217041 8.11459 0.651123L5.94154 5.04194L1.08998 5.74858C0.611266 5.8185 0.212829 6.15464 0.0626334 6.61557C-0.0875619 7.07514 0.0372427 7.58062 0.384704 7.91909L3.90345 11.3488L3.07337 16.1876C2.99193 16.665 3.18802 17.1488 3.58002 17.4339C3.97338 17.7177 4.49408 17.7548 4.92181 17.5294L9.25541 15.2443L13.6017 17.5294C13.7876 17.6275 13.9913 17.6759 14.1937 17.6759C14.4572 17.6759 14.7206 17.5931 14.9435 17.4341C15.3357 17.1476 15.5316 16.6652 15.4501 16.1878L14.6214 11.349L18.1402 7.91929C18.4876 7.58179 18.6122 7.07514 18.462 6.61421Z" fill="#C8963C"/>
<path d="M38.8311 6.61421C38.6809 6.15346 38.2824 5.8185 37.8024 5.74858L32.9393 5.04194L30.7662 0.651123C30.3359 -0.217041 28.9139 -0.217041 28.4836 0.651123L26.3106 5.04194L21.459 5.74858C20.9803 5.8185 20.5818 6.15464 20.4317 6.61557C20.2815 7.07514 20.4063 7.58062 20.7537 7.91909L24.2725 11.3488L23.4424 16.1876C23.3609 16.665 23.557 17.1501 23.949 17.4339C24.3412 17.7177 24.8631 17.7548 25.2908 17.5294L29.6244 15.2443L33.9707 17.5294C34.1566 17.6275 34.3604 17.6759 34.5627 17.6759C34.8262 17.6759 35.0897 17.5931 35.3125 17.4341C35.7047 17.1476 35.9006 16.6652 35.8191 16.1878L34.9904 11.349L38.5092 7.91929C38.8566 7.58179 38.9813 7.07514 38.8311 6.61421Z" fill="#C8963C"/>
<path d="M59.1996 6.61421C59.0494 6.15346 58.651 5.8185 58.1709 5.74858L53.3078 5.04194L51.1348 0.651123C50.7045 -0.217041 49.2824 -0.217041 48.8521 0.651123L46.6791 5.04194L41.8275 5.74858C41.3488 5.8185 40.9504 6.15464 40.8002 6.61557C40.65 7.07514 40.7748 7.58062 41.1223 7.91909L44.641 11.3488L43.8109 16.1876C43.7295 16.665 43.9256 17.1488 44.3176 17.4339C44.7109 17.7177 45.2316 17.7548 45.6594 17.5294L49.9928 15.2443L54.339 17.5294C54.525 17.6275 54.7287 17.6759 54.931 17.6759C55.1945 17.6759 55.458 17.5931 55.6808 17.4341C56.073 17.1476 56.2689 16.6652 56.1875 16.1878L55.3588 11.349L58.8775 7.91929C59.2252 7.58179 59.3498 7.07514 59.1996 6.61421Z" fill="#C8963C"/>
<path d="M79.569 6.61421C79.4188 6.15346 79.0203 5.8185 78.5403 5.74858L73.6772 5.04194L71.5041 0.651123C71.0739 -0.217041 69.6518 -0.217041 69.2215 0.651123L67.0485 5.04194L62.1969 5.74858C61.7182 5.8185 61.3198 6.15464 61.1696 6.61557C61.0194 7.07514 61.1442 7.58062 61.4916 7.91909L65.0104 11.3488L64.1803 16.1876C64.0989 16.665 64.295 17.1488 64.6869 17.4339C65.0803 17.7177 65.601 17.7548 66.0287 17.5294L70.3621 15.2443L74.7084 17.5294C74.8944 17.6275 75.0981 17.6759 75.3004 17.6759C75.5639 17.6759 75.8274 17.5931 76.0502 17.4341C76.4424 17.1476 76.6383 16.6652 76.5569 16.1878L75.7282 11.349L79.2469 7.91929C79.5944 7.58179 79.7192 7.07514 79.569 6.61421Z" fill="#C8963C"/>
<path d="M99.9381 6.61421C99.7866 6.15346 99.3895 5.8185 98.9094 5.74858L94.0463 5.04194L91.8733 0.651123C91.443 -0.217041 90.0209 -0.217041 89.5907 0.651123L87.4176 5.04194L82.5661 5.74858C82.0873 5.8185 81.6889 6.15464 81.5387 6.61557C81.3885 7.07514 81.5133 7.58062 81.8608 7.91909L85.3795 11.3488L84.5495 16.1876C84.468 16.665 84.6641 17.1488 85.0561 17.4339C85.2776 17.5943 85.5399 17.6757 85.8034 17.6757C86.0071 17.6757 86.2108 17.6273 86.3991 17.5292L90.7327 15.2441L95.0801 17.5292C95.5078 17.7572 96.0272 17.7189 96.4207 17.4326C96.8116 17.1474 97.0077 16.665 96.9262 16.1874L96.0975 11.3486L99.6162 7.91889C99.9635 7.58179 100.087 7.07514 99.9381 6.61421Z" fill="#C8963C"/>
</svg>
