<svg xmlns="http://www.w3.org/2000/svg" width="14.782" height="10.393" viewBox="0 0 14.782 10.393">
  <path id="Icon_awesome-youtube" data-name="Icon awesome-youtube" d="M15.523,6.126a1.857,1.857,0,0,0-1.307-1.315A43.893,43.893,0,0,0,8.441,4.5a43.893,43.893,0,0,0-5.775.311A1.857,1.857,0,0,0,1.359,6.126,19.484,19.484,0,0,0,1.05,9.707a19.484,19.484,0,0,0,.309,3.581,1.83,1.83,0,0,0,1.307,1.294,43.893,43.893,0,0,0,5.775.311,43.893,43.893,0,0,0,5.775-.311,1.83,1.83,0,0,0,1.307-1.294,19.484,19.484,0,0,0,.309-3.581A19.484,19.484,0,0,0,15.523,6.126ZM6.929,11.9v-4.4l3.863,2.2-3.863,2.2Z" transform="translate(-1.05 -4.5)" fill="#004f92"/>
</svg>
